<svg id="svg" version="1.1" xmlns="http://www.w3.org/2000/svg" xmlns:xlink="http://www.w3.org/1999/xlink" width="400" height="400" viewBox="0, 0, 400,400"><g id="svgg"><path id="path0" d="M194.141 53.032 C 109.929 109.676,90.131 223.154,150.152 305.162 C 153.447 309.664,153.516 309.691,153.516 306.508 C 153.516 300.932,155.187 287.133,156.782 279.543 L 157.346 276.859 154.471 271.337 C 119.821 204.793,138.093 123.057,197.941 76.884 L 199.987 75.306 203.802 78.302 C 223.161 93.503,239.521 114.448,249.427 136.715 L 251.664 141.742 253.859 140.755 C 256.926 139.377,266.084 135.821,269.203 134.798 L 271.804 133.944 270.834 131.523 C 258.627 101.042,233.945 71.466,204.640 52.203 C 199.213 48.636,200.872 48.505,194.141 53.032 M277.734 182.387 C 274.619 183.631,269.961 185.709,267.384 187.005 L 262.697 189.361 262.822 197.512 C 263.490 241.144,245.336 284.178,214.206 312.753 L 210.490 316.164 211.397 316.877 C 213.224 318.310,220.243 322.605,224.955 325.173 L 229.793 327.810 233.869 323.768 C 267.741 290.180,286.880 240.212,284.376 191.901 C 284.145 187.440,283.830 182.965,283.677 181.958 L 283.398 180.126 277.734 182.387 M199.427 324.979 C 199.042 325.601,188.315 332.602,184.264 334.874 L 180.443 337.017 185.046 340.518 C 187.577 342.444,191.978 345.568,194.824 347.461 L 200.000 350.903 205.176 347.461 C 208.022 345.568,212.423 342.444,214.954 340.518 L 219.557 337.017 215.797 334.899 C 211.590 332.529,205.371 328.552,202.157 326.178 C 199.845 324.470,199.764 324.435,199.427 324.979 " stroke="none" fill="#1c8f04" fill-rule="evenodd"></path><path id="path1" d="M58.398 0.814 C 29.244 5.935,6.979 27.649,1.092 56.706 L 0.195 61.133 0.195 200.000 L 0.195 338.867 1.092 343.294 C 6.841 371.669,28.331 393.159,56.706 398.908 L 61.133 399.805 200.000 399.805 L 338.867 399.805 343.294 398.908 C 371.669 393.159,393.159 371.669,398.908 343.294 L 399.805 338.867 399.805 200.000 L 399.805 61.133 398.908 56.706 C 393.175 28.412,371.991 7.149,343.507 1.098 L 339.258 0.195 200.977 0.128 C 65.904 0.061,62.596 0.077,58.398 0.814 M204.878 52.154 C 232.676 70.432,254.874 96.242,268.696 126.358 C 272.482 134.607,272.747 133.646,266.016 136.088 C 262.900 137.218,258.441 138.965,256.105 139.970 C 251.016 142.159,251.446 142.130,250.811 140.332 C 244.039 121.174,224.333 94.927,205.205 79.590 C 199.471 74.993,200.532 74.995,194.792 79.568 C 137.105 125.531,120.034 212.061,156.330 274.522 L 157.301 276.193 158.773 270.421 C 170.256 225.399,199.604 186.294,239.861 162.372 C 244.274 159.749,244.388 159.732,244.892 161.621 C 246.497 167.627,248.256 176.353,248.941 181.699 C 248.996 182.133,247.298 183.497,243.750 185.868 C 196.308 217.571,169.337 275.460,176.039 331.198 C 176.387 334.091,176.077 333.879,167.635 325.462 C 88.071 246.132,100.821 115.585,194.275 52.709 C 200.469 48.541,199.464 48.594,204.878 52.154 M278.026 151.855 C 280.185 159.655,281.757 166.849,281.371 167.167 C 281.197 167.310,278.770 168.271,275.977 169.302 C 273.184 170.333,268.661 172.192,265.927 173.432 L 260.955 175.688 260.709 174.270 C 259.992 170.139,258.441 163.253,257.259 158.958 C 256.525 156.287,256.041 153.993,256.184 153.861 C 257.041 153.069,274.681 146.175,276.008 146.113 C 276.241 146.103,277.148 148.687,278.026 151.855 M283.735 181.348 C 284.922 187.942,284.947 207.065,283.784 218.166 C 279.594 258.159,262.929 293.793,234.597 323.340 C 229.642 328.507,230.520 328.321,225.023 325.369 C 220.385 322.878,219.535 322.371,213.827 318.692 L 210.271 316.401 217.367 309.274 C 247.007 279.508,262.517 242.056,262.654 199.925 L 262.689 189.107 268.356 186.366 C 273.181 184.033,282.453 180.127,283.257 180.090 C 283.395 180.083,283.610 180.649,283.735 181.348 M203.395 326.888 C 206.735 329.311,212.552 332.969,216.517 335.139 C 219.087 336.546,219.482 336.893,219.076 337.383 C 217.639 339.114,201.028 350.781,200.000 350.781 C 198.972 350.781,182.361 339.114,180.924 337.383 C 180.518 336.893,180.913 336.547,183.483 335.142 C 187.277 333.069,193.920 328.871,197.257 326.439 C 200.134 324.341,199.857 324.320,203.395 326.888 " stroke="none" fill="#fbfbfb" fill-rule="evenodd"></path><path id="path2" d="M270.703 148.019 C 267.803 149.040,263.308 150.789,260.714 151.906 L 255.999 153.937 257.314 158.707 C 258.037 161.330,259.180 166.231,259.853 169.598 L 261.078 175.720 263.770 174.364 C 266.834 172.822,273.309 170.128,278.272 168.333 C 281.260 167.251,281.616 167.020,281.451 166.272 C 279.531 157.585,276.730 146.946,276.225 146.421 C 276.088 146.278,273.604 146.997,270.703 148.019 M239.424 162.810 C 189.310 192.609,157.006 245.903,153.601 304.398 L 153.311 309.381 156.584 313.382 C 159.811 317.326,175.659 333.456,175.986 333.129 C 176.078 333.037,175.953 331.389,175.709 329.469 C 174.976 323.716,175.110 304.339,175.930 297.461 C 181.463 251.080,205.527 211.481,243.875 185.656 L 248.882 182.283 248.623 180.302 C 247.882 174.631,244.659 160.156,244.138 160.156 C 244.000 160.156,241.879 161.351,239.424 162.810 " stroke="none" fill="#93db0b" fill-rule="evenodd"></path><path id="path3" d="M217.171 90.332 C 218.129 91.353,218.964 92.188,219.027 92.188 C 219.320 92.188,219.010 91.837,217.285 90.218 L 215.430 88.477 217.171 90.332 M204.875 189.551 L 200.977 193.555 204.980 189.656 C 207.183 187.511,208.984 185.710,208.984 185.652 C 208.984 185.369,208.497 185.832,204.875 189.551 M262.591 193.359 C 262.591 194.111,262.671 194.419,262.769 194.043 C 262.868 193.667,262.868 193.052,262.769 192.676 C 262.671 192.300,262.591 192.607,262.591 193.359 M115.341 194.141 C 115.341 195.107,115.417 195.503,115.510 195.020 C 115.603 194.536,115.603 193.745,115.510 193.262 C 115.417 192.778,115.341 193.174,115.341 194.141 M284.481 194.141 C 284.481 195.107,284.558 195.503,284.651 195.020 C 284.744 194.536,284.744 193.745,284.651 193.262 C 284.558 192.778,284.481 193.174,284.481 194.141 M220.304 204.980 L 216.992 208.398 220.410 205.087 C 223.585 202.011,224.006 201.563,223.722 201.563 C 223.663 201.563,222.125 203.101,220.304 204.980 M115.341 205.859 C 115.341 206.826,115.417 207.222,115.510 206.738 C 115.603 206.255,115.603 205.464,115.510 204.980 C 115.417 204.497,115.341 204.893,115.341 205.859 M284.481 205.859 C 284.481 206.826,284.558 207.222,284.651 206.738 C 284.744 206.255,284.744 205.464,284.651 204.980 C 284.558 204.497,284.481 204.893,284.481 205.859 M175.099 308.789 C 175.103 309.648,175.183 309.954,175.276 309.468 C 175.370 308.982,175.366 308.279,175.268 307.906 C 175.171 307.532,175.094 307.930,175.099 308.789 M175.099 320.117 C 175.103 320.977,175.183 321.282,175.276 320.796 C 175.370 320.310,175.366 319.607,175.268 319.234 C 175.171 318.860,175.094 319.258,175.099 320.117 M166.797 324.805 C 169.261 327.275,171.364 329.297,171.472 329.297 C 171.579 329.297,169.651 327.275,167.188 324.805 C 164.724 322.334,162.620 320.313,162.513 320.313 C 162.405 320.313,164.333 322.334,166.797 324.805 " stroke="none" fill="#84bc84" fill-rule="evenodd"></path><path id="path4" d="M166.983 75.098 L 163.867 78.320 167.090 75.204 C 170.083 72.311,170.491 71.875,170.206 71.875 C 170.147 71.875,168.697 73.325,166.983 75.098 M232.617 75.000 C 234.326 76.719,235.812 78.125,235.919 78.125 C 236.027 78.125,234.716 76.719,233.008 75.000 C 231.299 73.281,229.813 71.875,229.706 71.875 C 229.598 71.875,230.909 73.281,232.617 75.000 M184.546 88.379 L 183.398 89.648 184.668 88.501 C 185.851 87.432,186.117 87.109,185.815 87.109 C 185.748 87.109,185.177 87.681,184.546 88.379 M180.057 92.871 L 178.711 94.336 180.176 92.990 C 180.981 92.249,181.641 91.590,181.641 91.525 C 181.641 91.227,181.310 91.508,180.057 92.871 M115.382 200.000 C 115.382 202.471,115.446 203.481,115.523 202.246 C 115.601 201.011,115.601 198.989,115.523 197.754 C 115.446 196.519,115.382 197.529,115.382 200.000 M219.120 307.715 L 217.773 309.180 219.238 307.834 C 220.602 306.581,220.883 306.250,220.584 306.250 C 220.519 306.250,219.860 306.909,219.120 307.715 M215.213 311.621 L 213.867 313.086 215.332 311.740 C 216.138 310.999,216.797 310.340,216.797 310.275 C 216.797 309.977,216.466 310.258,215.213 311.621 M232.801 324.902 L 230.273 327.539 232.910 325.011 C 234.360 323.621,235.547 322.434,235.547 322.375 C 235.547 322.087,235.149 322.453,232.801 324.902 " stroke="none" fill="#74b874" fill-rule="evenodd"></path></g></svg>