<svg id="svg" version="1.1" xmlns="http://www.w3.org/2000/svg" xmlns:xlink="http://www.w3.org/1999/xlink" width="400" height="111.34020618556701" viewBox="0, 0, 400,111.34020618556701"><g id="svgg"><path id="path0" d="M46.999 40.958 C 46.999 41.027,46.662 41.222,46.249 41.392 C 45.837 41.561,45.500 41.767,45.500 41.850 C 45.500 41.932,45.394 42.000,45.264 42.000 C 45.134 42.000,45.003 42.056,44.972 42.125 C 44.942 42.194,44.639 42.391,44.299 42.564 C 43.960 42.736,43.547 43.003,43.383 43.156 C 43.218 43.308,42.971 43.487,42.833 43.552 C 42.289 43.810,39.694 45.649,39.094 46.202 C 38.916 46.366,38.718 46.500,38.653 46.500 C 38.588 46.500,38.307 46.706,38.029 46.958 C 37.750 47.210,37.140 47.754,36.673 48.167 C 33.363 51.091,31.612 52.837,29.726 55.095 C 29.373 55.518,28.819 56.139,28.496 56.474 C 28.173 56.809,27.745 57.349,27.545 57.674 C 27.345 57.999,27.020 58.449,26.822 58.674 C 26.625 58.899,26.157 59.533,25.782 60.083 C 25.408 60.633,25.004 61.182,24.884 61.304 C 24.765 61.425,24.667 61.603,24.667 61.701 C 24.667 61.798,24.534 61.999,24.373 62.147 C 24.211 62.295,23.930 62.717,23.748 63.083 C 23.566 63.450,23.360 63.775,23.292 63.806 C 23.223 63.836,23.167 63.961,23.167 64.083 C 23.167 64.206,23.107 64.331,23.033 64.361 C 22.842 64.441,22.000 65.998,22.000 66.271 C 22.000 66.397,21.931 66.500,21.846 66.500 C 21.652 66.500,19.667 70.487,19.667 70.877 C 19.667 71.036,19.592 71.167,19.500 71.167 C 19.408 71.167,19.333 71.317,19.333 71.500 C 19.333 71.683,19.273 71.833,19.200 71.833 C 19.126 71.833,18.928 72.227,18.760 72.708 C 18.591 73.190,18.389 73.655,18.310 73.742 C 18.231 73.829,18.167 74.036,18.167 74.202 C 18.167 74.369,18.098 74.635,18.014 74.794 C 17.572 75.630,17.161 76.725,17.065 77.324 C 17.006 77.696,16.892 78.000,16.812 78.000 C 16.732 78.000,16.667 78.262,16.667 78.583 C 16.667 78.904,16.600 79.167,16.519 79.167 C 16.361 79.167,16.285 79.448,15.968 81.208 C 15.856 81.827,15.705 82.333,15.632 82.333 C 15.560 82.333,15.496 82.727,15.490 83.208 C 15.485 83.690,15.418 84.421,15.342 84.833 C 14.813 87.694,14.665 88.597,14.497 90.000 C 14.393 90.871,14.248 92.568,14.176 93.771 C 14.105 94.974,13.994 96.042,13.931 96.144 C 13.867 96.247,14.007 96.522,14.241 96.756 C 14.475 96.990,14.667 97.235,14.667 97.299 C 14.667 97.364,14.948 97.731,15.292 98.115 C 15.635 98.500,16.254 99.207,16.667 99.688 C 17.642 100.823,21.202 104.333,21.379 104.333 C 21.454 104.333,21.706 104.525,21.940 104.759 C 22.174 104.992,22.452 105.155,22.558 105.121 C 22.811 105.038,22.906 103.840,22.678 103.611 C 22.570 103.504,22.500 102.591,22.500 101.300 C 22.500 99.989,22.436 99.167,22.333 99.167 C 22.115 99.167,22.115 96.885,22.333 96.750 C 22.430 96.690,22.500 95.759,22.500 94.523 C 22.500 93.356,22.569 92.329,22.653 92.242 C 22.737 92.155,22.848 91.596,22.899 91.000 C 23.091 88.761,23.203 87.912,23.331 87.750 C 23.404 87.658,23.516 87.040,23.582 86.375 C 23.647 85.710,23.768 85.167,23.850 85.167 C 23.933 85.167,24.000 84.909,24.000 84.593 C 24.000 84.278,24.067 83.978,24.148 83.928 C 24.230 83.878,24.338 83.592,24.389 83.293 C 24.631 81.877,24.902 80.833,25.028 80.833 C 25.104 80.833,25.167 80.650,25.167 80.427 C 25.167 80.203,25.242 79.973,25.333 79.917 C 25.425 79.860,25.500 79.631,25.500 79.407 C 25.500 79.183,25.575 79.000,25.667 79.000 C 25.758 79.000,25.834 78.831,25.834 78.625 C 25.835 78.419,25.947 78.035,26.084 77.773 C 26.221 77.510,26.333 77.160,26.333 76.995 C 26.333 76.830,26.390 76.669,26.458 76.639 C 26.653 76.552,27.167 75.360,27.167 74.994 C 27.167 74.814,27.242 74.667,27.333 74.667 C 27.425 74.667,27.500 74.523,27.500 74.347 C 27.500 74.172,27.556 74.003,27.625 73.972 C 27.808 73.891,28.667 72.209,28.667 71.932 C 28.667 71.801,28.723 71.669,28.792 71.639 C 28.927 71.579,29.478 70.620,29.949 69.625 C 30.112 69.281,30.303 69.000,30.373 69.000 C 30.443 69.000,30.500 68.887,30.500 68.750 C 30.500 68.612,30.574 68.500,30.663 68.500 C 30.753 68.500,30.879 68.294,30.942 68.043 C 31.005 67.792,31.137 67.505,31.236 67.404 C 31.452 67.186,31.718 66.821,32.875 65.159 C 33.875 63.721,34.585 62.800,35.125 62.238 C 35.331 62.024,35.500 61.770,35.500 61.674 C 35.500 61.578,35.577 61.500,35.672 61.500 C 35.766 61.500,35.893 61.369,35.953 61.208 C 36.089 60.843,41.516 55.402,42.406 54.739 C 42.766 54.470,43.321 54.006,43.637 53.708 C 43.954 53.410,44.297 53.167,44.400 53.167 C 44.503 53.167,44.680 53.017,44.795 52.833 C 44.909 52.650,45.103 52.500,45.226 52.500 C 45.348 52.500,45.583 52.351,45.748 52.169 C 45.913 51.986,46.431 51.594,46.899 51.297 C 47.367 50.999,47.775 50.698,47.806 50.628 C 47.836 50.558,47.935 50.500,48.025 50.500 C 48.115 50.500,48.435 50.313,48.735 50.083 C 49.036 49.854,49.368 49.667,49.474 49.667 C 49.583 49.667,49.667 49.413,49.667 49.083 C 49.667 48.762,49.592 48.500,49.500 48.500 C 49.407 48.500,49.333 48.056,49.333 47.500 C 49.333 46.944,49.259 46.500,49.167 46.500 C 49.075 46.500,49.000 46.163,49.000 45.750 C 49.000 45.337,48.936 45.000,48.857 45.000 C 48.779 45.000,48.669 44.531,48.613 43.958 C 48.519 42.989,48.380 42.447,47.930 41.292 C 47.767 40.872,47.001 40.598,46.999 40.958 " stroke="none" fill="#64bc04" fill-rule="evenodd"></path><path id="path1" d="M30.836 0.123 C 30.700 0.177,30.489 0.321,30.366 0.443 C 30.243 0.566,30.036 0.667,29.905 0.667 C 29.774 0.667,29.667 0.742,29.667 0.833 C 29.667 0.925,29.555 1.000,29.418 1.000 C 29.281 1.000,29.076 1.150,28.961 1.333 C 28.847 1.517,28.627 1.667,28.474 1.667 C 28.320 1.667,28.169 1.723,28.139 1.792 C 28.056 1.979,26.878 2.833,26.704 2.833 C 26.620 2.833,26.413 2.987,26.243 3.174 C 26.073 3.362,25.687 3.633,25.385 3.776 C 25.083 3.919,24.878 4.103,24.928 4.185 C 24.978 4.267,24.952 4.333,24.869 4.333 C 24.786 4.333,24.563 4.465,24.374 4.625 C 24.185 4.785,23.742 5.153,23.390 5.441 C 23.038 5.729,22.544 6.157,22.292 6.391 C 22.040 6.626,21.833 6.782,21.833 6.739 C 21.833 6.696,20.680 7.806,19.270 9.206 C 17.860 10.605,16.731 11.777,16.760 11.810 C 16.790 11.843,16.594 12.056,16.324 12.283 C 16.054 12.510,15.833 12.802,15.833 12.931 C 15.833 13.061,15.761 13.167,15.673 13.167 C 15.490 13.167,14.667 14.017,14.667 14.206 C 14.667 14.276,14.367 14.651,14.000 15.040 C 13.633 15.430,13.333 15.793,13.333 15.849 C 13.333 15.904,13.180 16.126,12.992 16.342 C 12.805 16.558,12.499 16.982,12.312 17.284 C 12.126 17.586,11.904 17.833,11.820 17.833 C 11.736 17.833,11.667 17.905,11.667 17.993 C 11.667 18.207,10.923 19.334,10.504 19.756 C 10.318 19.942,10.167 20.186,10.167 20.298 C 10.167 20.409,10.098 20.500,10.013 20.500 C 9.929 20.500,9.810 20.726,9.750 21.001 C 9.689 21.277,9.571 21.460,9.486 21.408 C 9.402 21.356,9.333 21.468,9.333 21.657 C 9.333 21.846,9.276 22.000,9.206 22.000 C 9.076 22.000,8.997 22.127,8.417 23.264 C 8.233 23.623,8.027 23.942,7.958 23.972 C 7.890 24.003,7.833 24.160,7.833 24.321 C 7.833 24.483,7.685 24.749,7.504 24.913 C 7.323 25.077,7.215 25.276,7.264 25.356 C 7.313 25.435,7.274 25.500,7.177 25.500 C 7.079 25.500,7.000 25.610,7.000 25.745 C 7.000 25.880,6.837 26.273,6.639 26.620 C 6.016 27.705,5.500 28.821,5.500 29.083 C 5.500 29.220,5.425 29.333,5.333 29.333 C 5.242 29.333,5.167 29.483,5.167 29.667 C 5.167 29.850,5.092 30.000,5.000 30.000 C 4.908 30.000,4.833 30.141,4.833 30.314 C 4.833 30.487,4.721 30.843,4.584 31.106 C 4.447 31.369,4.335 31.752,4.334 31.958 C 4.334 32.165,4.258 32.333,4.167 32.333 C 4.075 32.333,4.000 32.483,4.000 32.667 C 4.000 32.850,3.942 33.000,3.871 33.000 C 3.752 33.000,3.447 33.961,3.224 35.042 C 3.171 35.294,3.062 35.500,2.981 35.500 C 2.900 35.500,2.833 35.725,2.833 36.000 C 2.833 36.275,2.758 36.500,2.667 36.500 C 2.575 36.500,2.500 36.675,2.500 36.889 C 2.500 37.103,2.448 37.330,2.384 37.394 C 2.320 37.457,2.249 37.639,2.227 37.796 C 2.115 38.567,1.622 40.617,1.486 40.873 C 1.402 41.032,1.333 41.421,1.333 41.738 C 1.333 42.055,1.258 42.360,1.167 42.417 C 1.075 42.473,1.000 42.773,1.000 43.083 C 1.000 43.393,0.934 43.688,0.853 43.738 C 0.773 43.787,0.653 44.636,0.586 45.622 C 0.520 46.609,0.380 47.522,0.275 47.651 C 0.007 47.978,0.002 63.514,0.270 63.849 C 0.372 63.978,0.508 64.869,0.571 65.829 C 0.635 66.788,0.753 67.654,0.835 67.752 C 0.916 67.849,1.001 68.241,1.023 68.621 C 1.046 69.002,1.125 69.276,1.199 69.230 C 1.273 69.184,1.333 69.447,1.333 69.814 C 1.333 70.180,1.408 70.527,1.500 70.583 C 1.592 70.640,1.667 70.883,1.667 71.123 C 1.667 71.363,1.739 71.790,1.828 72.072 C 1.917 72.353,2.110 73.033,2.258 73.583 C 2.407 74.133,2.596 74.714,2.681 74.873 C 2.765 75.032,2.833 75.314,2.833 75.500 C 2.833 75.686,2.905 75.968,2.994 76.127 C 3.082 76.286,3.286 76.885,3.447 77.458 C 3.609 78.031,3.799 78.500,3.870 78.500 C 3.942 78.500,4.000 78.688,4.000 78.917 C 4.000 79.146,4.075 79.333,4.167 79.333 C 4.258 79.333,4.333 79.492,4.333 79.686 C 4.333 79.880,4.510 80.386,4.727 80.811 C 4.943 81.236,5.196 81.771,5.290 82.000 C 5.384 82.229,5.598 82.754,5.767 83.167 C 5.936 83.579,6.117 83.954,6.170 84.000 C 6.324 84.134,7.167 85.933,7.167 86.128 C 7.167 86.226,7.223 86.331,7.292 86.361 C 7.404 86.411,8.106 87.653,8.571 88.624 C 8.669 88.829,8.806 88.998,8.875 88.999 C 8.944 88.999,9.000 89.116,9.000 89.257 C 9.000 89.398,9.140 89.664,9.311 89.848 C 9.482 90.032,9.764 90.460,9.936 90.799 C 10.109 91.139,10.306 91.442,10.375 91.472 C 10.444 91.503,10.500 91.634,10.500 91.764 C 10.500 91.894,10.570 92.000,10.655 92.000 C 10.741 92.000,10.853 92.131,10.905 92.292 C 10.957 92.452,11.215 92.813,11.478 93.093 C 11.742 93.373,12.009 93.767,12.073 93.968 C 12.137 94.169,12.259 94.333,12.345 94.333 C 12.430 94.333,12.500 94.446,12.500 94.583 C 12.500 94.721,12.575 94.833,12.667 94.833 C 12.758 94.833,12.833 94.950,12.833 95.093 C 12.833 95.236,12.900 95.312,12.981 95.262 C 13.062 95.212,13.220 95.392,13.332 95.663 C 13.573 96.246,13.933 96.600,13.967 96.289 C 13.980 96.176,14.065 95.033,14.156 93.750 C 14.327 91.328,14.692 88.252,14.996 86.667 C 15.468 84.201,15.558 83.297,15.361 82.983 C 15.254 82.812,15.167 82.558,15.167 82.419 C 15.167 82.280,15.092 82.167,15.000 82.167 C 14.908 82.167,14.833 82.054,14.833 81.917 C 14.833 81.779,14.758 81.667,14.667 81.667 C 14.575 81.667,14.500 81.592,14.500 81.501 C 14.500 81.217,13.928 80.000,13.794 80.000 C 13.724 80.000,13.667 79.813,13.667 79.583 C 13.667 79.354,13.592 79.167,13.500 79.167 C 13.408 79.167,13.333 79.040,13.333 78.884 C 13.333 78.729,13.079 78.073,12.768 77.426 C 12.457 76.779,12.152 76.063,12.091 75.833 C 11.975 75.400,11.733 74.790,11.481 74.294 C 11.400 74.135,11.333 73.816,11.333 73.586 C 11.333 73.355,11.276 73.167,11.206 73.167 C 11.136 73.167,10.933 72.529,10.755 71.750 C 10.577 70.971,10.380 70.333,10.317 70.333 C 10.210 70.333,10.151 70.081,9.897 68.542 C 9.840 68.198,9.735 67.842,9.663 67.750 C 9.535 67.587,9.251 65.532,9.277 64.958 C 9.284 64.798,9.225 64.667,9.145 64.667 C 9.065 64.667,9.000 64.259,9.000 63.760 C 9.000 63.261,8.925 62.807,8.833 62.750 C 8.742 62.693,8.667 61.976,8.667 61.157 C 8.667 60.274,8.599 59.667,8.500 59.667 C 8.287 59.667,8.272 52.130,8.485 51.908 C 8.569 51.821,8.680 51.075,8.733 50.250 C 8.869 48.112,9.014 46.942,9.167 46.750 C 9.240 46.658,9.354 45.927,9.420 45.125 C 9.485 44.323,9.606 43.667,9.686 43.667 C 9.767 43.667,9.833 43.409,9.833 43.093 C 9.833 42.778,9.908 42.473,10.000 42.417 C 10.092 42.360,10.167 42.098,10.167 41.833 C 10.167 41.569,10.242 41.307,10.333 41.250 C 10.425 41.193,10.500 40.941,10.500 40.690 C 10.500 40.439,10.569 40.162,10.654 40.075 C 10.738 39.988,10.882 39.542,10.972 39.083 C 11.170 38.073,12.196 35.105,12.373 35.028 C 12.443 34.997,12.500 34.828,12.500 34.653 C 12.500 34.477,12.575 34.333,12.667 34.333 C 12.758 34.333,12.833 34.183,12.833 34.000 C 12.833 33.817,12.899 33.667,12.979 33.667 C 13.059 33.667,13.172 33.367,13.231 33.000 C 13.289 32.633,13.411 32.333,13.502 32.333 C 13.593 32.333,13.667 32.217,13.667 32.076 C 13.667 31.934,13.854 31.466,14.083 31.035 C 14.312 30.605,14.500 30.165,14.500 30.057 C 14.500 29.949,14.556 29.836,14.625 29.806 C 14.694 29.775,14.931 29.394,15.151 28.958 C 15.372 28.523,15.616 28.167,15.693 28.167 C 15.770 28.167,15.825 28.110,15.815 28.042 C 15.779 27.790,16.043 27.167,16.186 27.167 C 16.267 27.167,16.333 27.068,16.333 26.948 C 16.333 26.828,16.469 26.584,16.634 26.406 C 16.800 26.229,16.959 26.008,16.989 25.917 C 17.154 25.403,17.254 25.226,17.506 25.000 C 17.660 24.863,17.837 24.587,17.900 24.388 C 17.963 24.189,18.273 23.743,18.590 23.397 C 18.907 23.051,19.167 22.674,19.167 22.559 C 19.167 22.444,19.267 22.290,19.390 22.217 C 19.514 22.143,19.757 21.858,19.931 21.583 C 20.105 21.308,20.384 20.933,20.550 20.750 C 20.717 20.567,21.130 20.087,21.468 19.684 C 21.806 19.281,22.327 18.693,22.625 18.376 C 22.923 18.059,23.167 17.760,23.167 17.712 C 23.167 17.664,23.807 16.977,24.590 16.187 C 25.373 15.397,26.179 14.575,26.382 14.361 C 26.584 14.148,27.181 13.637,27.708 13.227 C 28.235 12.816,28.667 12.429,28.668 12.365 C 28.668 12.302,28.944 12.063,29.281 11.833 C 29.617 11.604,29.973 11.341,30.071 11.248 C 30.170 11.155,30.460 10.945,30.716 10.781 C 30.972 10.617,31.260 10.311,31.356 10.101 C 31.535 9.708,33.997 7.992,36.500 6.516 C 37.279 6.057,38.097 5.553,38.318 5.396 L 38.719 5.111 38.235 4.713 C 37.968 4.494,37.508 4.094,37.213 3.824 C 36.917 3.554,36.610 3.333,36.530 3.333 C 36.450 3.333,36.207 3.180,35.991 2.992 C 35.775 2.805,35.332 2.489,35.007 2.289 C 34.683 2.090,34.271 1.794,34.094 1.630 C 33.916 1.467,33.672 1.333,33.552 1.333 C 33.432 1.333,33.333 1.276,33.333 1.206 C 33.333 1.028,31.582 -0.003,31.307 0.013 C 31.184 0.020,30.972 0.070,30.836 0.123 " stroke="none" fill="#048b04" fill-rule="evenodd"></path><path id="path2" d="M39.855 6.162 C 40.154 6.435,40.433 6.623,40.476 6.580 C 40.568 6.487,39.645 5.667,39.448 5.667 C 39.374 5.667,39.557 5.890,39.855 6.162 M43.385 9.393 C 44.590 10.572,44.833 10.775,44.833 10.602 C 44.833 10.454,43.035 8.726,42.578 8.434 C 42.306 8.261,42.669 8.692,43.385 9.393 M34.000 12.607 C 34.000 12.736,34.534 13.154,34.708 13.161 C 34.777 13.164,34.683 13.017,34.500 12.833 C 34.158 12.491,34.000 12.419,34.000 12.607 M46.833 12.956 C 46.833 13.206,47.322 13.773,47.328 13.530 C 47.331 13.409,47.221 13.197,47.083 13.060 C 46.946 12.922,46.833 12.876,46.833 12.956 M36.333 14.569 C 36.333 14.745,36.835 15.220,36.926 15.130 C 36.968 15.088,36.852 14.917,36.668 14.751 C 36.484 14.585,36.333 14.503,36.333 14.569 M40.167 18.647 C 40.167 18.906,40.648 19.408,40.775 19.281 C 40.825 19.230,40.709 19.020,40.517 18.813 C 40.323 18.605,40.167 18.531,40.167 18.647 M42.519 21.521 C 42.509 21.670,42.612 21.886,42.750 22.000 C 42.923 22.143,43.000 22.150,43.000 22.020 C 43.000 21.918,42.930 21.833,42.846 21.833 C 42.761 21.833,42.657 21.702,42.615 21.542 C 42.551 21.296,42.536 21.292,42.519 21.521 M53.167 33.333 L 52.750 33.467 53.198 33.483 C 53.445 33.493,53.693 33.425,53.750 33.333 C 53.867 33.144,53.758 33.144,53.167 33.333 M240.833 36.833 C 240.833 36.925,240.571 37.000,240.250 37.000 C 239.929 37.000,239.667 37.066,239.667 37.146 C 239.667 37.226,239.441 37.337,239.165 37.392 C 238.519 37.521,237.521 38.519,237.392 39.165 C 237.337 39.441,237.226 39.667,237.146 39.667 C 237.066 39.667,237.000 40.529,237.000 41.583 C 237.000 42.637,237.067 43.500,237.149 43.500 C 237.230 43.500,237.344 43.688,237.402 43.917 C 237.459 44.146,237.580 44.333,237.670 44.333 C 237.760 44.333,237.833 44.414,237.833 44.512 C 237.833 44.742,238.257 45.167,238.487 45.167 C 238.584 45.167,238.758 45.317,238.872 45.500 C 238.987 45.683,239.208 45.833,239.364 45.833 C 239.519 45.833,239.693 45.908,239.750 46.000 C 239.808 46.095,240.637 46.167,241.667 46.167 C 242.696 46.167,243.525 46.095,243.583 46.000 C 243.640 45.908,243.815 45.833,243.973 45.833 C 244.131 45.833,244.368 45.683,244.500 45.500 C 244.632 45.317,244.804 45.167,244.882 45.167 C 245.053 45.167,245.500 44.738,245.500 44.573 C 245.500 44.509,245.669 44.309,245.875 44.130 C 246.321 43.743,246.471 39.184,246.042 39.042 C 245.927 39.003,245.833 38.901,245.833 38.814 C 245.833 38.495,244.656 37.489,244.168 37.392 C 243.892 37.337,243.667 37.226,243.667 37.146 C 243.667 37.066,243.404 37.000,243.083 37.000 C 242.762 37.000,242.500 36.925,242.500 36.833 C 242.500 36.742,242.125 36.667,241.667 36.667 C 241.208 36.667,240.833 36.742,240.833 36.833 M279.667 36.833 C 279.667 36.925,279.404 37.000,279.083 37.000 C 278.762 37.000,278.500 37.075,278.500 37.167 C 278.500 37.258,278.395 37.333,278.267 37.333 C 277.933 37.333,276.500 38.732,276.500 39.058 C 276.500 39.210,276.425 39.333,276.333 39.333 C 276.242 39.333,276.167 39.521,276.167 39.750 C 276.167 39.979,276.092 40.167,276.000 40.167 C 275.903 40.167,275.833 40.722,275.833 41.500 C 275.833 42.278,275.903 42.833,276.000 42.833 C 276.092 42.833,276.167 43.021,276.167 43.250 C 276.167 43.479,276.242 43.667,276.333 43.667 C 276.425 43.667,276.500 43.814,276.500 43.993 C 276.500 44.173,276.617 44.417,276.759 44.535 C 276.902 44.653,277.274 44.994,277.587 45.292 C 277.900 45.590,278.308 45.833,278.494 45.833 C 278.681 45.833,278.833 45.908,278.833 46.000 C 278.833 46.247,282.170 46.212,282.715 45.958 C 282.962 45.844,283.165 45.694,283.165 45.625 C 283.166 45.556,283.282 45.500,283.422 45.500 C 283.745 45.500,284.667 44.570,284.667 44.244 C 284.667 44.110,284.742 44.000,284.833 44.000 C 284.925 44.000,285.000 43.894,285.000 43.764 C 285.000 43.634,285.087 43.499,285.194 43.463 C 285.853 43.243,285.327 39.168,284.551 38.484 C 284.386 38.338,284.144 38.063,284.015 37.873 C 283.885 37.683,283.529 37.480,283.223 37.423 C 282.917 37.365,282.667 37.247,282.667 37.159 C 282.667 37.072,282.404 37.000,282.083 37.000 C 281.762 37.000,281.500 36.925,281.500 36.833 C 281.500 36.742,281.087 36.667,280.583 36.667 C 280.079 36.667,279.667 36.742,279.667 36.833 M95.250 40.716 C 94.938 41.097,94.167 42.663,94.167 42.915 C 94.167 43.054,94.106 43.167,94.031 43.167 C 93.957 43.167,93.793 43.429,93.667 43.750 C 93.541 44.071,93.381 44.333,93.312 44.333 C 93.243 44.333,93.136 44.671,93.075 45.083 C 93.013 45.496,92.896 45.833,92.814 45.833 C 92.733 45.833,92.667 45.946,92.667 46.083 C 92.667 46.221,92.592 46.333,92.500 46.333 C 92.408 46.333,92.333 46.483,92.333 46.667 C 92.333 46.850,92.263 47.000,92.177 47.000 C 92.091 47.000,91.970 47.337,91.908 47.750 C 91.846 48.163,91.729 48.500,91.648 48.500 C 91.566 48.500,91.500 48.612,91.500 48.750 C 91.500 48.887,91.425 49.000,91.333 49.000 C 91.242 49.000,91.167 49.150,91.167 49.333 C 91.167 49.517,91.092 49.667,91.000 49.667 C 90.908 49.667,90.831 49.835,90.827 50.042 C 90.824 50.248,90.714 50.604,90.583 50.833 C 90.452 51.063,90.342 51.419,90.339 51.625 C 90.336 51.831,90.277 52.001,90.208 52.001 C 90.039 52.003,89.667 52.827,89.667 53.200 C 89.667 53.365,89.595 53.500,89.508 53.500 C 89.420 53.500,89.299 53.762,89.239 54.083 C 89.179 54.404,89.063 54.667,88.981 54.667 C 88.900 54.667,88.833 54.854,88.833 55.083 C 88.833 55.313,88.758 55.500,88.667 55.500 C 88.575 55.500,88.500 55.650,88.500 55.833 C 88.500 56.017,88.434 56.167,88.352 56.167 C 88.271 56.167,88.154 56.504,88.092 56.917 C 88.030 57.329,87.909 57.667,87.823 57.667 C 87.737 57.667,87.667 57.854,87.667 58.083 C 87.667 58.313,87.592 58.500,87.500 58.500 C 87.408 58.500,87.333 58.688,87.333 58.917 C 87.333 59.146,87.258 59.333,87.167 59.333 C 87.075 59.333,87.000 59.479,87.000 59.657 C 87.000 59.835,86.928 60.025,86.841 60.079 C 86.753 60.133,86.721 60.280,86.769 60.405 C 86.817 60.530,86.776 60.682,86.678 60.743 C 86.580 60.803,86.500 60.999,86.500 61.177 C 86.500 61.354,86.425 61.500,86.333 61.500 C 86.242 61.500,86.167 61.688,86.167 61.917 C 86.167 62.146,86.092 62.333,86.000 62.333 C 85.908 62.333,85.833 62.521,85.833 62.750 C 85.833 62.979,85.763 63.167,85.677 63.167 C 85.591 63.167,85.470 63.504,85.408 63.917 C 85.346 64.329,85.229 64.667,85.148 64.667 C 85.066 64.667,85.000 64.854,85.000 65.083 C 85.000 65.313,84.925 65.500,84.833 65.500 C 84.742 65.500,84.667 65.725,84.667 66.000 C 84.667 66.275,84.593 66.500,84.502 66.500 C 84.411 66.500,84.289 66.800,84.231 67.167 C 84.172 67.533,84.059 67.833,83.979 67.833 C 83.899 67.833,83.833 68.058,83.833 68.333 C 83.833 68.608,83.758 68.833,83.667 68.833 C 83.575 68.833,83.500 69.021,83.500 69.250 C 83.500 69.479,83.432 69.667,83.348 69.667 C 83.264 69.667,83.145 69.966,83.083 70.332 C 83.022 70.699,82.903 71.041,82.819 71.092 C 82.735 71.144,82.667 71.369,82.667 71.593 C 82.667 71.817,82.592 72.000,82.500 72.000 C 82.408 72.000,82.333 72.188,82.333 72.417 C 82.333 72.646,82.258 72.833,82.167 72.833 C 82.075 72.833,81.998 73.040,81.995 73.292 C 81.992 73.544,81.879 73.896,81.745 74.074 C 81.610 74.251,81.500 74.608,81.500 74.865 C 81.500 75.123,81.425 75.333,81.333 75.333 C 81.242 75.333,81.167 75.446,81.167 75.583 C 81.167 75.799,81.761 75.833,85.512 75.833 C 90.388 75.833,90.232 75.872,90.421 74.609 C 90.485 74.183,90.604 73.833,90.686 73.833 C 90.767 73.833,90.833 73.608,90.833 73.333 C 90.833 73.058,90.908 72.833,91.000 72.833 C 91.092 72.833,91.167 72.646,91.167 72.417 C 91.167 72.188,91.242 72.000,91.333 72.000 C 91.425 72.000,91.500 71.859,91.500 71.686 C 91.500 71.513,91.612 71.157,91.749 70.894 C 91.886 70.631,91.998 70.248,91.999 70.042 C 92.000 69.835,92.075 69.667,92.167 69.667 C 92.258 69.667,92.333 69.494,92.333 69.283 C 92.333 68.502,92.353 68.500,99.189 68.500 L 105.644 68.500 105.754 68.875 C 105.952 69.555,106.246 70.167,106.374 70.167 C 106.443 70.167,106.500 70.392,106.500 70.667 C 106.500 70.942,106.575 71.167,106.667 71.167 C 106.758 71.167,106.833 71.350,106.833 71.573 C 106.833 71.797,106.901 72.022,106.984 72.074 C 107.067 72.125,107.096 72.317,107.048 72.500 C 107.000 72.686,107.043 72.833,107.147 72.833 C 107.250 72.833,107.333 73.058,107.333 73.333 C 107.333 73.608,107.408 73.833,107.500 73.833 C 107.592 73.833,107.667 74.021,107.667 74.250 C 107.667 74.479,107.742 74.667,107.833 74.667 C 107.925 74.667,108.000 74.854,108.000 75.083 C 108.000 75.313,108.079 75.500,108.177 75.500 C 108.274 75.500,108.307 75.575,108.250 75.667 C 108.182 75.776,109.720 75.833,112.740 75.833 C 115.294 75.833,117.333 75.768,117.333 75.686 C 117.333 75.340,116.770 73.833,116.641 73.833 C 116.564 73.833,116.500 73.608,116.500 73.333 C 116.500 73.058,116.425 72.833,116.333 72.833 C 116.242 72.833,116.167 72.646,116.167 72.417 C 116.167 72.188,116.099 72.000,116.016 72.000 C 115.933 72.000,115.813 71.625,115.750 71.167 C 115.687 70.708,115.567 70.333,115.484 70.333 C 115.401 70.333,115.333 70.183,115.333 70.000 C 115.333 69.817,115.258 69.667,115.167 69.667 C 115.075 69.667,115.000 69.479,115.000 69.250 C 115.000 69.021,114.935 68.833,114.856 68.833 C 114.777 68.833,114.667 68.515,114.613 68.125 C 114.505 67.360,114.160 66.503,113.958 66.501 C 113.890 66.501,113.833 66.275,113.833 66.000 C 113.833 65.725,113.767 65.500,113.686 65.500 C 113.604 65.500,113.487 65.164,113.426 64.754 C 113.364 64.344,113.243 63.964,113.157 63.911 C 113.071 63.857,113.000 63.668,113.000 63.490 C 113.000 63.312,112.925 63.167,112.833 63.167 C 112.742 63.167,112.667 62.979,112.667 62.750 C 112.667 62.521,112.592 62.333,112.500 62.333 C 112.408 62.333,112.333 62.183,112.333 62.000 C 112.333 61.817,112.265 61.667,112.182 61.667 C 112.099 61.667,111.980 61.292,111.917 60.833 C 111.854 60.375,111.734 60.000,111.651 60.000 C 111.568 60.000,111.500 59.850,111.500 59.667 C 111.500 59.483,111.425 59.333,111.333 59.333 C 111.242 59.333,111.167 59.146,111.167 58.917 C 111.167 58.688,111.096 58.500,111.010 58.500 C 110.924 58.500,110.803 58.163,110.741 57.750 C 110.679 57.337,110.562 57.000,110.481 57.000 C 110.400 57.000,110.333 56.850,110.333 56.667 C 110.333 56.483,110.258 56.333,110.167 56.333 C 110.075 56.333,110.000 56.146,110.000 55.917 C 110.000 55.688,109.931 55.500,109.847 55.500 C 109.762 55.500,109.643 55.256,109.583 54.958 C 109.438 54.248,109.118 53.500,108.959 53.500 C 108.890 53.500,108.833 53.349,108.833 53.164 C 108.833 52.844,108.535 52.177,108.312 52.000 C 108.255 51.954,108.154 51.598,108.089 51.208 C 108.024 50.819,107.902 50.500,107.819 50.500 C 107.735 50.500,107.667 50.387,107.667 50.250 C 107.667 50.112,107.592 50.000,107.500 50.000 C 107.408 50.000,107.333 49.775,107.333 49.500 C 107.333 49.225,107.262 49.000,107.174 49.000 C 107.087 49.000,106.966 48.737,106.906 48.417 C 106.845 48.096,106.730 47.833,106.648 47.833 C 106.567 47.833,106.500 47.721,106.500 47.583 C 106.500 47.446,106.425 47.333,106.333 47.333 C 106.242 47.333,106.167 47.104,106.167 46.823 C 106.167 46.526,106.097 46.357,106.000 46.417 C 105.908 46.473,105.833 46.403,105.833 46.261 C 105.833 45.906,105.284 44.667,105.127 44.667 C 105.057 44.667,105.000 44.528,105.000 44.359 C 105.000 44.190,104.897 43.833,104.771 43.567 C 104.645 43.301,104.439 42.840,104.313 42.542 C 104.188 42.244,104.029 42.000,103.959 42.000 C 103.890 42.000,103.833 41.850,103.833 41.667 C 103.833 41.483,103.758 41.333,103.667 41.333 C 103.575 41.333,103.500 41.253,103.500 41.155 C 103.500 40.562,103.090 40.500,99.220 40.506 C 96.434 40.511,95.372 40.567,95.250 40.716 M198.333 41.083 C 198.333 41.404,198.408 41.667,198.500 41.667 C 198.592 41.667,198.667 41.854,198.667 42.083 C 198.667 42.313,198.742 42.500,198.833 42.500 C 198.925 42.500,199.000 42.725,199.000 43.000 C 199.000 43.275,199.068 43.500,199.151 43.500 C 199.234 43.500,199.354 43.875,199.417 44.333 C 199.480 44.792,199.599 45.167,199.682 45.167 C 199.765 45.167,199.833 45.350,199.833 45.573 C 199.833 45.797,199.908 46.027,200.000 46.083 C 200.092 46.140,200.167 46.369,200.167 46.593 C 200.167 46.817,200.226 47.000,200.299 47.000 C 200.439 47.000,201.000 48.674,201.000 49.090 C 201.000 49.224,201.075 49.333,201.167 49.333 C 201.258 49.333,201.333 49.521,201.333 49.750 C 201.333 49.979,201.408 50.167,201.500 50.167 C 201.592 50.167,201.667 50.317,201.667 50.500 C 201.667 50.683,201.726 50.833,201.798 50.833 C 201.870 50.833,201.942 50.965,201.957 51.125 C 202.029 51.845,202.217 52.500,202.352 52.500 C 202.434 52.500,202.500 52.650,202.500 52.833 C 202.500 53.017,202.575 53.167,202.667 53.167 C 202.758 53.167,202.833 53.354,202.833 53.583 C 202.833 53.813,202.900 54.000,202.981 54.000 C 203.062 54.000,203.179 54.337,203.241 54.750 C 203.303 55.163,203.424 55.500,203.510 55.500 C 203.596 55.500,203.667 55.688,203.667 55.917 C 203.667 56.146,203.742 56.333,203.833 56.333 C 203.925 56.333,204.000 56.483,204.000 56.667 C 204.000 56.850,204.066 57.000,204.148 57.000 C 204.229 57.000,204.346 57.337,204.408 57.750 C 204.470 58.163,204.591 58.500,204.677 58.500 C 204.763 58.500,204.833 58.688,204.833 58.917 C 204.833 59.146,204.908 59.333,205.000 59.333 C 205.092 59.333,205.167 59.483,205.167 59.667 C 205.167 59.850,205.242 60.000,205.333 60.000 C 205.425 60.000,205.500 60.183,205.500 60.407 C 205.500 60.631,205.576 60.861,205.669 60.918 C 205.763 60.976,205.796 61.093,205.743 61.178 C 205.690 61.264,205.726 61.333,205.823 61.333 C 205.921 61.333,206.000 61.468,206.000 61.633 C 206.000 62.006,206.373 62.830,206.542 62.832 C 206.610 62.833,206.667 62.975,206.667 63.148 C 206.667 63.320,206.779 63.677,206.916 63.939 C 207.053 64.202,207.165 64.548,207.166 64.708 C 207.166 64.869,207.242 65.000,207.333 65.000 C 207.425 65.000,207.500 65.188,207.500 65.417 C 207.500 65.646,207.575 65.833,207.667 65.833 C 207.758 65.833,207.833 65.983,207.833 66.167 C 207.833 66.350,207.907 66.500,207.998 66.500 C 208.089 66.500,208.211 66.800,208.269 67.167 C 208.328 67.533,208.441 67.833,208.521 67.833 C 208.601 67.833,208.667 67.983,208.667 68.167 C 208.667 68.350,208.742 68.500,208.833 68.500 C 208.925 68.500,209.000 68.612,209.000 68.750 C 209.000 68.887,209.075 69.000,209.167 69.000 C 209.258 69.000,209.333 69.211,209.333 69.468 C 209.333 69.726,209.443 70.082,209.578 70.260 C 209.713 70.438,209.825 70.715,209.828 70.875 C 209.831 71.035,209.908 71.167,210.000 71.167 C 210.092 71.167,210.167 71.279,210.167 71.417 C 210.167 71.554,210.242 71.667,210.333 71.667 C 210.425 71.667,210.500 71.817,210.500 72.000 C 210.500 72.183,210.575 72.333,210.667 72.333 C 210.758 72.333,210.833 72.483,210.833 72.666 C 210.833 73.076,211.365 74.333,211.539 74.333 C 211.609 74.333,211.667 74.483,211.667 74.667 C 211.667 74.850,211.734 75.000,211.815 75.000 C 211.897 75.000,212.011 75.188,212.068 75.417 L 212.173 75.833 216.297 75.833 L 220.421 75.833 220.711 75.166 C 220.870 74.798,221.000 74.386,221.000 74.249 C 221.000 74.112,221.075 74.000,221.167 74.000 C 221.258 74.000,221.333 73.887,221.333 73.750 C 221.333 73.612,221.408 73.500,221.500 73.500 C 221.592 73.500,221.667 73.350,221.667 73.167 C 221.667 72.983,221.732 72.833,221.812 72.833 C 221.892 72.833,222.005 72.533,222.064 72.167 C 222.123 71.800,222.245 71.500,222.335 71.500 C 222.426 71.500,222.500 71.350,222.500 71.167 C 222.500 70.983,222.575 70.833,222.667 70.833 C 222.758 70.833,222.833 70.683,222.833 70.500 C 222.833 70.317,222.908 70.167,223.000 70.167 C 223.092 70.167,223.167 69.979,223.167 69.750 C 223.167 69.521,223.238 69.333,223.326 69.333 C 223.413 69.333,223.534 69.071,223.594 68.750 C 223.655 68.429,223.770 68.167,223.852 68.167 C 223.933 68.167,224.000 67.979,224.000 67.750 C 224.000 67.521,224.075 67.333,224.167 67.333 C 224.258 67.333,224.333 67.190,224.333 67.014 C 224.333 66.838,224.413 66.668,224.511 66.635 C 224.608 66.603,224.731 66.259,224.783 65.871 C 224.835 65.484,224.942 65.167,225.022 65.167 C 225.102 65.167,225.167 65.054,225.167 64.917 C 225.167 64.779,225.242 64.667,225.333 64.667 C 225.425 64.667,225.500 64.517,225.500 64.333 C 225.500 64.150,225.575 64.000,225.667 64.000 C 225.758 64.000,225.834 63.831,225.834 63.625 C 225.835 63.419,225.947 63.035,226.084 62.773 C 226.221 62.510,226.333 62.154,226.333 61.981 C 226.333 61.808,226.390 61.667,226.459 61.667 C 226.618 61.667,226.938 60.919,227.083 60.208 C 227.143 59.910,227.262 59.667,227.347 59.667 C 227.431 59.667,227.500 59.479,227.500 59.250 C 227.500 59.021,227.575 58.833,227.667 58.833 C 227.758 58.833,227.833 58.683,227.833 58.500 C 227.833 58.317,227.908 58.167,228.000 58.167 C 228.092 58.167,228.167 58.025,228.167 57.852 C 228.167 57.680,228.279 57.323,228.416 57.061 C 228.553 56.798,228.665 56.415,228.666 56.208 C 228.666 56.002,228.742 55.833,228.833 55.833 C 228.925 55.833,229.000 55.646,229.000 55.417 C 229.000 55.188,229.075 55.000,229.167 55.000 C 229.258 55.000,229.333 54.850,229.333 54.667 C 229.333 54.483,229.400 54.333,229.481 54.333 C 229.562 54.333,229.679 53.996,229.741 53.583 C 229.803 53.171,229.924 52.833,230.010 52.833 C 230.096 52.833,230.167 52.646,230.167 52.417 C 230.167 52.188,230.242 52.000,230.333 52.000 C 230.425 52.000,230.500 51.859,230.500 51.686 C 230.500 51.513,230.612 51.157,230.749 50.894 C 230.886 50.631,230.998 50.248,230.999 50.042 C 231.000 49.835,231.075 49.667,231.167 49.667 C 231.258 49.667,231.333 49.442,231.333 49.167 C 231.333 48.892,231.408 48.667,231.500 48.667 C 231.592 48.667,231.667 48.479,231.667 48.250 C 231.667 48.021,231.742 47.833,231.833 47.833 C 231.925 47.833,232.000 47.646,232.000 47.417 C 232.000 47.188,232.070 47.000,232.156 47.000 C 232.243 47.000,232.364 46.663,232.425 46.250 C 232.487 45.837,232.604 45.500,232.686 45.500 C 232.767 45.500,232.833 45.313,232.833 45.083 C 232.833 44.854,232.908 44.667,233.000 44.667 C 233.092 44.667,233.167 44.442,233.167 44.167 C 233.167 43.892,233.242 43.667,233.333 43.667 C 233.425 43.667,233.500 43.498,233.501 43.292 C 233.502 43.085,233.614 42.702,233.751 42.439 C 233.888 42.177,234.000 41.820,234.000 41.648 C 234.000 41.475,234.075 41.333,234.167 41.333 C 234.258 41.333,234.333 41.146,234.333 40.917 L 234.333 40.500 229.750 40.500 L 225.167 40.500 225.167 40.917 C 225.167 41.146,225.100 41.333,225.019 41.333 C 224.938 41.333,224.820 41.746,224.757 42.250 C 224.694 42.754,224.573 43.167,224.488 43.167 C 224.403 43.167,224.333 43.354,224.333 43.583 C 224.333 43.813,224.258 44.000,224.167 44.000 C 224.075 44.000,224.000 44.225,224.000 44.500 C 224.000 44.775,223.932 45.000,223.849 45.000 C 223.766 45.000,223.646 45.375,223.583 45.833 C 223.520 46.292,223.401 46.667,223.318 46.667 C 223.235 46.667,223.167 46.854,223.167 47.083 C 223.167 47.313,223.092 47.500,223.000 47.500 C 222.908 47.500,222.833 47.725,222.833 48.000 C 222.833 48.275,222.772 48.500,222.697 48.500 C 222.547 48.500,222.000 50.114,222.000 50.556 C 222.000 50.709,221.925 50.833,221.833 50.833 C 221.742 50.833,221.667 51.021,221.667 51.250 C 221.667 51.479,221.592 51.667,221.500 51.667 C 221.408 51.667,221.333 51.850,221.333 52.073 C 221.333 52.297,221.267 52.521,221.186 52.571 C 221.105 52.622,220.987 53.002,220.925 53.418 C 220.863 53.833,220.742 54.130,220.656 54.077 C 220.570 54.024,220.500 54.210,220.500 54.490 C 220.500 54.771,220.425 55.000,220.333 55.000 C 220.242 55.000,220.167 55.183,220.167 55.407 C 220.167 55.631,220.098 55.856,220.015 55.908 C 219.931 55.959,219.812 56.301,219.750 56.668 C 219.688 57.034,219.569 57.333,219.485 57.333 C 219.402 57.333,219.333 57.521,219.333 57.750 C 219.333 57.979,219.258 58.167,219.167 58.167 C 219.075 58.167,219.000 58.354,219.000 58.583 C 219.000 58.813,218.925 59.000,218.833 59.000 C 218.742 59.000,218.667 59.225,218.667 59.500 C 218.667 59.775,218.587 60.000,218.490 60.000 C 218.393 60.000,218.357 60.070,218.410 60.155 C 218.462 60.240,218.429 60.357,218.336 60.415 C 218.243 60.473,218.167 60.698,218.167 60.917 C 218.167 61.135,218.092 61.360,218.000 61.417 C 217.908 61.473,217.833 61.703,217.833 61.927 C 217.833 62.150,217.777 62.333,217.707 62.333 C 217.549 62.333,217.229 63.081,217.084 63.792 C 217.023 64.090,216.904 64.333,216.820 64.333 C 216.736 64.333,216.667 64.558,216.667 64.833 C 216.667 65.720,216.115 65.271,215.949 64.250 C 215.890 63.885,215.764 63.560,215.671 63.529 C 215.577 63.498,215.500 63.291,215.500 63.069 C 215.500 62.848,215.425 62.667,215.333 62.667 C 215.242 62.667,215.167 62.517,215.167 62.333 C 215.167 62.150,215.092 62.000,215.000 62.000 C 214.908 62.000,214.833 61.813,214.833 61.583 C 214.833 61.354,214.769 61.167,214.689 61.167 C 214.610 61.167,214.501 60.848,214.446 60.458 C 214.339 59.693,213.994 58.837,213.792 58.835 C 213.723 58.834,213.667 58.608,213.667 58.333 C 213.667 58.058,213.599 57.833,213.516 57.833 C 213.433 57.833,213.313 57.458,213.250 57.000 C 213.187 56.542,213.067 56.167,212.984 56.167 C 212.901 56.167,212.833 56.017,212.833 55.833 C 212.833 55.650,212.758 55.500,212.667 55.500 C 212.575 55.500,212.500 55.313,212.500 55.083 C 212.500 54.854,212.432 54.667,212.349 54.667 C 212.266 54.667,212.146 54.292,212.083 53.834 C 212.020 53.375,211.901 52.958,211.818 52.907 C 211.735 52.856,211.667 52.631,211.667 52.407 C 211.667 52.183,211.592 52.000,211.500 52.000 C 211.408 52.000,211.333 51.850,211.333 51.667 C 211.333 51.483,211.265 51.333,211.182 51.333 C 211.099 51.333,210.980 50.958,210.917 50.500 C 210.854 50.042,210.734 49.667,210.651 49.667 C 210.568 49.667,210.500 49.484,210.500 49.260 C 210.500 49.036,210.425 48.807,210.333 48.750 C 210.242 48.693,210.167 48.464,210.167 48.240 C 210.167 48.016,210.092 47.833,210.000 47.833 C 209.908 47.833,209.833 47.646,209.833 47.417 C 209.833 47.188,209.765 47.000,209.682 47.000 C 209.599 47.000,209.480 46.625,209.417 46.167 C 209.354 45.709,209.234 45.292,209.151 45.240 C 209.068 45.189,209.000 44.964,209.000 44.740 C 209.000 44.516,208.925 44.333,208.833 44.333 C 208.742 44.333,208.667 44.146,208.667 43.917 C 208.667 43.688,208.601 43.500,208.521 43.500 C 208.442 43.500,208.327 43.128,208.267 42.674 C 208.206 42.219,208.084 41.802,207.995 41.747 C 207.906 41.692,207.833 41.496,207.833 41.312 C 207.833 40.530,207.647 40.500,202.845 40.500 L 198.333 40.500 198.333 41.083 M351.833 58.167 L 351.833 75.833 356.083 75.833 L 360.333 75.833 360.333 58.167 L 360.333 40.500 356.083 40.500 L 351.833 40.500 351.833 58.167 M377.928 41.083 C 377.867 41.404,377.747 41.667,377.659 41.667 C 377.572 41.667,377.500 41.817,377.500 42.000 C 377.500 42.183,377.425 42.333,377.333 42.333 C 377.242 42.333,377.167 42.521,377.167 42.750 C 377.167 42.979,377.100 43.167,377.019 43.167 C 376.937 43.167,376.821 43.429,376.761 43.750 C 376.701 44.071,376.580 44.333,376.492 44.333 C 376.405 44.333,376.333 44.483,376.333 44.667 C 376.333 44.850,376.258 45.000,376.167 45.000 C 376.075 45.000,376.000 45.112,376.000 45.250 C 376.000 45.387,375.934 45.500,375.852 45.500 C 375.771 45.500,375.666 45.706,375.618 45.958 C 375.477 46.704,375.068 47.679,374.946 47.557 C 374.884 47.495,374.833 47.607,374.833 47.806 C 374.833 48.004,374.758 48.167,374.667 48.167 C 374.575 48.167,374.500 48.354,374.500 48.583 C 374.500 48.813,374.432 49.000,374.348 49.000 C 374.264 49.000,374.145 49.300,374.083 49.667 C 374.021 50.034,373.902 50.293,373.819 50.241 C 373.735 50.189,373.667 50.376,373.667 50.657 C 373.667 50.937,373.601 51.167,373.520 51.167 C 373.439 51.167,373.233 51.616,373.061 52.165 C 372.890 52.714,372.694 53.164,372.625 53.165 C 372.556 53.166,372.500 53.354,372.500 53.583 C 372.500 53.813,372.425 54.000,372.333 54.000 C 372.242 54.000,372.167 54.150,372.167 54.333 C 372.167 54.517,372.092 54.667,372.000 54.667 C 371.908 54.667,371.831 54.835,371.827 55.042 C 371.824 55.248,371.714 55.604,371.583 55.833 C 371.452 56.063,371.342 56.419,371.339 56.625 C 371.336 56.831,371.258 57.000,371.167 57.000 C 371.075 57.000,371.000 57.150,371.000 57.333 C 371.000 57.517,370.925 57.667,370.833 57.667 C 370.742 57.667,370.667 57.854,370.667 58.083 C 370.667 58.313,370.596 58.500,370.510 58.500 C 370.424 58.500,370.303 58.837,370.241 59.250 C 370.179 59.663,370.062 60.000,369.981 60.000 C 369.900 60.000,369.833 60.112,369.833 60.250 C 369.833 60.387,369.758 60.500,369.667 60.500 C 369.575 60.500,369.500 60.683,369.500 60.907 C 369.500 61.131,369.434 61.355,369.353 61.405 C 369.271 61.455,369.154 61.836,369.092 62.251 C 369.030 62.667,368.908 62.963,368.823 62.910 C 368.737 62.857,368.667 63.043,368.667 63.323 C 368.667 63.604,368.592 63.833,368.500 63.833 C 368.408 63.833,368.333 64.021,368.333 64.250 C 368.333 64.479,368.268 64.667,368.188 64.667 C 368.034 64.667,367.768 65.600,367.818 65.958 C 367.835 66.073,367.770 66.167,367.674 66.167 C 367.578 66.167,367.500 66.354,367.500 66.583 C 367.500 66.813,367.425 67.000,367.333 67.000 C 367.242 67.000,367.167 67.148,367.167 67.328 C 367.167 67.509,367.017 67.922,366.835 68.247 C 366.653 68.572,366.455 69.138,366.396 69.506 C 366.338 69.873,366.224 70.214,366.145 70.264 C 366.065 70.313,366.000 70.536,366.000 70.760 C 366.000 70.984,365.943 71.167,365.874 71.167 C 365.685 71.167,365.361 71.991,365.235 72.792 C 365.174 73.181,365.059 73.500,364.979 73.500 C 364.899 73.500,364.833 73.688,364.833 73.917 C 364.833 74.146,364.758 74.333,364.667 74.333 C 364.575 74.333,364.500 74.558,364.500 74.833 C 364.500 75.108,364.425 75.333,364.333 75.333 C 364.242 75.333,364.167 75.446,364.167 75.583 C 364.167 75.799,364.761 75.833,368.512 75.833 C 373.145 75.833,373.333 75.801,373.333 75.012 C 373.333 74.822,373.408 74.667,373.500 74.667 C 373.592 74.667,373.667 74.484,373.667 74.260 C 373.667 74.036,373.735 73.811,373.818 73.760 C 373.901 73.708,374.020 73.291,374.083 72.833 C 374.146 72.375,374.266 72.000,374.349 72.000 C 374.432 72.000,374.500 71.813,374.500 71.583 C 374.500 71.354,374.575 71.167,374.667 71.167 C 374.758 71.167,374.833 70.942,374.833 70.667 C 374.833 70.392,374.901 70.167,374.984 70.167 C 375.067 70.167,375.187 69.792,375.250 69.333 L 375.365 68.500 381.944 68.500 C 388.969 68.500,389.000 68.504,389.000 69.312 C 389.000 69.496,389.071 69.691,389.157 69.744 C 389.243 69.797,389.364 70.177,389.426 70.587 C 389.487 70.998,389.604 71.333,389.686 71.333 C 389.767 71.333,389.833 71.558,389.833 71.833 C 389.833 72.108,389.908 72.333,390.000 72.333 C 390.092 72.333,390.167 72.446,390.167 72.583 C 390.167 72.721,390.233 72.833,390.314 72.833 C 390.395 72.833,390.513 73.246,390.576 73.750 C 390.639 74.254,390.760 74.667,390.845 74.667 C 390.930 74.667,391.000 74.822,391.000 75.012 C 391.000 75.800,391.193 75.833,395.761 75.833 L 400.046 75.833 399.934 74.881 C 399.872 74.358,399.761 73.889,399.687 73.840 C 399.612 73.790,399.506 73.463,399.451 73.113 C 399.335 72.377,398.977 71.500,398.793 71.500 C 398.723 71.500,398.667 71.275,398.667 71.000 C 398.667 70.725,398.600 70.500,398.519 70.500 C 398.438 70.500,398.321 70.164,398.259 69.754 C 398.198 69.344,398.077 68.964,397.990 68.911 C 397.904 68.857,397.833 68.668,397.833 68.490 C 397.833 68.312,397.758 68.167,397.667 68.167 C 397.575 68.167,397.500 67.979,397.500 67.750 C 397.500 67.521,397.425 67.333,397.333 67.333 C 397.242 67.333,397.167 67.146,397.167 66.917 C 397.167 66.688,397.102 66.500,397.022 66.500 C 396.942 66.500,396.835 66.183,396.783 65.795 C 396.731 65.408,396.608 65.064,396.511 65.031 C 396.413 64.999,396.333 64.753,396.333 64.486 C 396.333 64.219,396.258 64.000,396.167 64.000 C 396.075 64.000,396.000 63.813,396.000 63.583 C 396.000 63.354,395.926 63.167,395.835 63.167 C 395.745 63.167,395.622 62.865,395.563 62.496 C 395.504 62.128,395.391 61.786,395.311 61.736 C 395.232 61.687,395.167 61.464,395.167 61.240 C 395.167 61.016,395.092 60.833,395.000 60.833 C 394.908 60.833,394.833 60.721,394.833 60.583 C 394.833 60.446,394.768 60.333,394.689 60.333 C 394.609 60.333,394.501 60.016,394.449 59.629 C 394.397 59.241,394.275 58.897,394.177 58.865 C 394.080 58.832,394.000 58.587,394.000 58.319 C 394.000 58.052,393.925 57.833,393.833 57.833 C 393.742 57.833,393.667 57.646,393.667 57.417 C 393.667 57.188,393.592 57.000,393.500 57.000 C 393.408 57.000,393.333 56.846,393.333 56.657 C 393.333 56.468,393.268 56.354,393.188 56.403 C 393.108 56.453,393.001 56.178,392.949 55.792 C 392.897 55.406,392.775 55.064,392.677 55.031 C 392.580 54.999,392.500 54.791,392.500 54.569 C 392.500 54.348,392.425 54.167,392.333 54.167 C 392.242 54.167,392.167 54.017,392.167 53.833 C 392.167 53.650,392.096 53.500,392.010 53.500 C 391.924 53.500,391.803 53.163,391.741 52.750 C 391.679 52.337,391.562 52.000,391.481 52.000 C 391.400 52.000,391.333 51.850,391.333 51.667 C 391.333 51.483,391.258 51.333,391.167 51.333 C 391.075 51.333,391.000 51.146,391.000 50.917 C 391.000 50.688,390.928 50.500,390.841 50.500 C 390.753 50.500,390.633 50.237,390.572 49.917 C 390.512 49.596,390.396 49.333,390.315 49.333 C 390.233 49.333,390.167 49.146,390.167 48.917 C 390.167 48.688,390.092 48.500,390.000 48.500 C 389.908 48.500,389.833 48.350,389.833 48.167 C 389.833 47.983,389.758 47.833,389.667 47.833 C 389.575 47.833,389.500 47.721,389.500 47.583 C 389.500 47.446,389.430 47.333,389.344 47.333 C 389.257 47.333,389.136 46.996,389.075 46.583 C 389.013 46.171,388.896 45.833,388.814 45.833 C 388.733 45.833,388.667 45.683,388.667 45.500 C 388.667 45.317,388.592 45.167,388.500 45.167 C 388.408 45.167,388.333 45.054,388.333 44.917 C 388.333 44.779,388.267 44.667,388.185 44.667 C 388.104 44.667,387.988 44.404,387.928 44.083 C 387.867 43.762,387.747 43.500,387.659 43.500 C 387.572 43.500,387.500 43.349,387.500 43.164 C 387.500 42.850,387.206 42.186,386.984 42.000 C 386.929 41.954,386.832 41.701,386.767 41.438 C 386.538 40.500,386.536 40.500,382.114 40.500 L 378.037 40.500 377.928 41.083 M131.000 48.315 C 131.000 48.397,130.456 48.506,129.792 48.557 C 129.127 48.609,128.433 48.682,128.250 48.721 C 128.067 48.759,127.598 48.847,127.208 48.917 C 126.819 48.986,126.500 49.108,126.500 49.188 C 126.500 49.268,126.388 49.333,126.250 49.333 C 126.112 49.333,126.000 49.408,126.000 49.500 C 126.000 49.592,125.850 49.667,125.667 49.667 C 125.483 49.667,125.333 49.733,125.333 49.815 C 125.333 49.896,125.087 50.009,124.786 50.066 C 124.485 50.122,124.131 50.318,123.999 50.501 C 123.868 50.684,123.698 50.833,123.623 50.833 C 123.464 50.833,123.133 51.095,122.616 51.628 C 122.415 51.836,122.006 52.242,121.708 52.530 C 121.410 52.818,121.167 53.154,121.167 53.277 C 121.167 53.400,121.093 53.500,121.003 53.500 C 120.913 53.500,120.793 53.688,120.735 53.917 C 120.678 54.146,120.564 54.333,120.482 54.333 C 120.400 54.333,120.333 54.483,120.333 54.667 C 120.333 54.850,120.277 55.000,120.207 55.000 C 120.019 55.000,119.695 55.824,119.569 56.625 C 119.508 57.015,119.392 57.333,119.312 57.333 C 119.232 57.333,119.167 57.671,119.167 58.083 C 119.167 58.496,119.092 58.833,119.000 58.833 C 118.895 58.833,118.833 59.917,118.833 61.750 C 118.833 63.583,118.895 64.667,119.000 64.667 C 119.092 64.667,119.167 65.004,119.167 65.417 C 119.167 65.829,119.242 66.167,119.333 66.167 C 119.425 66.167,119.500 66.415,119.500 66.718 C 119.500 67.021,119.610 67.415,119.745 67.593 C 119.879 67.771,119.992 68.048,119.995 68.208 C 119.998 68.369,120.075 68.500,120.167 68.500 C 120.258 68.500,120.333 68.612,120.333 68.750 C 120.333 68.887,120.408 69.000,120.500 69.000 C 120.592 69.000,120.667 69.115,120.667 69.256 C 120.667 69.767,122.866 72.333,123.305 72.333 C 123.390 72.333,123.553 72.446,123.667 72.583 C 123.781 72.721,124.015 72.833,124.187 72.833 C 124.359 72.833,124.500 72.908,124.500 73.000 C 124.500 73.092,124.688 73.167,124.917 73.167 C 125.146 73.167,125.333 73.242,125.333 73.333 C 125.333 73.425,125.477 73.500,125.653 73.500 C 125.828 73.500,126.003 73.594,126.042 73.708 C 126.095 73.868,127.087 73.917,130.250 73.917 C 133.413 73.917,134.405 73.868,134.458 73.708 C 134.695 72.999,135.333 73.515,135.333 74.417 C 135.333 74.921,135.262 75.333,135.174 75.333 C 135.087 75.333,134.969 75.580,134.912 75.882 C 134.847 76.232,134.633 76.548,134.320 76.757 C 134.051 76.936,133.792 77.207,133.743 77.358 C 133.654 77.635,132.303 78.167,131.687 78.167 C 131.503 78.167,131.307 78.242,131.250 78.333 C 131.191 78.429,130.332 78.500,129.240 78.500 C 128.080 78.500,127.333 78.435,127.333 78.333 C 127.333 78.242,126.971 78.167,126.528 78.167 C 126.085 78.167,125.670 78.114,125.606 78.051 C 125.477 77.921,125.270 77.876,124.125 77.725 C 123.690 77.667,123.333 77.556,123.333 77.477 C 123.333 77.398,123.183 77.333,123.000 77.333 C 122.817 77.333,122.667 77.258,122.667 77.167 C 122.667 76.912,121.675 76.968,121.405 77.238 C 121.274 77.369,121.167 77.769,121.167 78.127 C 121.167 78.485,121.110 78.834,121.042 78.903 C 120.973 78.972,120.900 79.266,120.880 79.556 C 120.806 80.628,120.627 81.500,120.482 81.500 C 120.400 81.500,120.333 81.837,120.333 82.250 C 120.333 82.662,120.258 83.000,120.167 83.000 C 119.858 83.000,119.997 83.751,120.346 83.969 C 120.536 84.088,121.061 84.229,121.513 84.283 C 121.964 84.336,122.333 84.444,122.333 84.523 C 122.333 84.602,122.671 84.667,123.083 84.667 C 123.496 84.667,123.833 84.742,123.833 84.833 C 123.833 84.925,124.166 85.000,124.573 85.000 C 124.981 85.000,125.360 85.075,125.417 85.167 C 125.481 85.271,127.085 85.333,129.677 85.333 C 132.337 85.333,133.833 85.273,133.833 85.167 C 133.833 85.075,134.171 85.000,134.583 85.000 C 134.996 85.000,135.333 84.925,135.333 84.833 C 135.333 84.742,135.521 84.667,135.750 84.667 C 135.979 84.667,136.167 84.602,136.167 84.522 C 136.167 84.442,136.484 84.335,136.871 84.283 C 137.259 84.231,137.603 84.108,137.635 84.011 C 137.668 83.913,137.838 83.833,138.014 83.833 C 138.190 83.833,138.333 83.758,138.333 83.667 C 138.333 83.575,138.429 83.500,138.547 83.500 C 138.664 83.500,138.868 83.350,139.000 83.167 C 139.132 82.983,139.328 82.833,139.436 82.833 C 139.722 82.833,141.167 81.425,141.167 81.145 C 141.167 81.014,141.317 80.799,141.500 80.667 C 141.683 80.535,141.833 80.330,141.833 80.213 C 141.833 80.096,141.900 80.000,141.981 80.000 C 142.063 80.000,142.179 79.737,142.239 79.417 C 142.299 79.096,142.420 78.833,142.508 78.833 C 142.595 78.833,142.667 78.608,142.667 78.333 C 142.667 78.058,142.742 77.833,142.833 77.833 C 142.925 77.833,143.000 77.571,143.000 77.250 C 143.000 76.929,143.075 76.667,143.167 76.667 C 143.262 76.667,143.333 76.167,143.333 75.500 C 143.333 74.828,143.405 74.333,143.501 74.333 C 143.612 74.333,143.654 70.206,143.626 62.042 L 143.583 49.750 142.958 49.698 C 142.615 49.670,142.333 49.576,142.333 49.490 C 142.333 49.404,142.071 49.333,141.750 49.333 C 141.429 49.333,141.167 49.266,141.167 49.183 C 141.167 49.100,140.773 48.990,140.292 48.938 C 139.810 48.886,139.192 48.806,138.917 48.759 C 138.642 48.713,137.535 48.626,136.458 48.566 C 135.381 48.507,134.500 48.392,134.500 48.312 C 134.500 48.232,133.712 48.167,132.750 48.167 C 131.787 48.167,131.000 48.233,131.000 48.315 M180.500 48.317 C 180.500 48.400,180.144 48.502,179.708 48.545 C 179.273 48.587,178.729 48.677,178.500 48.744 C 178.271 48.812,177.877 48.905,177.625 48.952 C 177.373 48.999,177.167 49.104,177.167 49.186 C 177.167 49.267,177.054 49.333,176.917 49.333 C 176.779 49.333,176.667 49.408,176.667 49.500 C 176.667 49.592,176.517 49.667,176.333 49.667 C 176.150 49.667,176.000 49.742,176.000 49.833 C 176.000 49.925,175.891 50.000,175.758 50.000 C 175.624 50.000,175.328 50.188,175.098 50.417 C 174.869 50.646,174.603 50.833,174.507 50.833 C 174.274 50.833,172.833 52.301,172.833 52.538 C 172.833 52.639,172.787 52.676,172.730 52.619 C 172.602 52.491,172.167 52.910,172.167 53.162 C 172.167 53.264,172.012 53.513,171.822 53.715 C 171.632 53.918,171.435 54.290,171.384 54.542 C 171.333 54.794,171.226 55.000,171.146 55.000 C 171.066 55.000,171.000 55.112,171.000 55.250 C 171.000 55.387,170.925 55.500,170.833 55.500 C 170.742 55.500,170.667 55.650,170.667 55.833 C 170.667 56.017,170.599 56.167,170.516 56.167 C 170.433 56.167,170.313 56.542,170.250 57.000 C 170.187 57.458,170.067 57.833,169.984 57.833 C 169.901 57.833,169.833 58.171,169.833 58.583 C 169.833 58.996,169.758 59.333,169.667 59.333 C 169.562 59.333,169.500 60.417,169.500 62.250 C 169.500 64.083,169.562 65.167,169.667 65.167 C 169.758 65.167,169.833 65.504,169.833 65.917 C 169.833 66.329,169.898 66.667,169.977 66.667 C 170.056 66.667,170.166 67.050,170.221 67.519 C 170.327 68.411,170.659 69.333,170.874 69.333 C 170.943 69.333,171.000 69.483,171.000 69.667 C 171.000 69.850,171.060 70.000,171.133 70.000 C 171.206 70.000,171.360 70.260,171.475 70.578 C 171.590 70.896,171.868 71.301,172.092 71.477 C 172.317 71.654,172.500 71.884,172.500 71.990 C 172.500 72.261,174.258 74.000,174.532 74.000 C 174.657 74.000,174.868 74.150,175.000 74.333 C 175.132 74.517,175.336 74.667,175.453 74.667 C 175.571 74.667,175.667 74.728,175.667 74.802 C 175.667 74.989,176.770 75.500,177.172 75.500 C 177.353 75.500,177.501 75.556,177.501 75.625 C 177.503 75.824,178.358 76.167,178.853 76.167 C 179.102 76.167,179.337 76.260,179.375 76.375 C 179.473 76.669,186.236 76.664,186.531 76.369 C 186.642 76.258,186.906 76.167,187.117 76.167 C 187.328 76.167,187.500 76.092,187.500 76.000 C 187.500 75.908,187.688 75.833,187.917 75.833 C 188.146 75.833,188.333 75.767,188.333 75.685 C 188.333 75.604,188.596 75.488,188.917 75.428 C 189.237 75.367,189.500 75.247,189.500 75.159 C 189.500 75.072,189.633 75.000,189.797 75.000 C 189.960 75.000,190.201 74.850,190.333 74.667 C 190.465 74.483,190.635 74.333,190.710 74.333 C 190.855 74.333,191.215 74.062,191.550 73.700 C 191.660 73.581,191.927 73.308,192.144 73.094 C 192.801 72.443,192.856 72.385,193.269 71.943 C 193.488 71.708,193.667 71.437,193.667 71.341 C 193.667 71.245,193.734 71.167,193.817 71.167 C 193.899 71.167,194.106 70.829,194.275 70.417 C 194.445 70.005,194.640 69.668,194.708 69.667 C 194.777 69.667,194.833 69.479,194.833 69.250 C 194.833 69.021,194.908 68.833,195.000 68.833 C 195.092 68.833,195.167 68.698,195.167 68.533 C 195.167 68.368,195.240 68.160,195.329 68.071 C 195.418 67.982,195.541 67.367,195.603 66.705 C 195.664 66.042,195.779 65.500,195.857 65.500 C 195.936 65.500,196.000 64.033,196.000 62.240 C 196.000 60.447,195.935 59.020,195.857 59.069 C 195.778 59.118,195.665 58.694,195.606 58.128 C 195.497 57.092,195.193 56.167,194.959 56.167 C 194.890 56.167,194.833 56.031,194.833 55.865 C 194.833 55.449,194.038 53.833,193.833 53.833 C 193.741 53.833,193.667 53.723,193.667 53.587 C 193.667 53.322,190.952 50.500,190.696 50.500 C 190.611 50.500,190.447 50.387,190.333 50.250 C 190.219 50.112,189.985 50.000,189.813 50.000 C 189.641 50.000,189.500 49.925,189.500 49.833 C 189.500 49.742,189.387 49.667,189.250 49.667 C 189.112 49.667,189.000 49.592,189.000 49.500 C 189.000 49.408,188.850 49.333,188.667 49.333 C 188.483 49.333,188.333 49.266,188.333 49.185 C 188.333 49.053,187.971 48.906,187.167 48.712 C 187.029 48.678,186.523 48.610,186.042 48.559 C 185.560 48.509,185.167 48.400,185.167 48.317 C 185.167 48.234,184.117 48.167,182.833 48.167 C 181.550 48.167,180.500 48.234,180.500 48.317 M259.333 48.317 C 259.333 48.400,258.940 48.509,258.458 48.559 C 257.977 48.610,257.471 48.678,257.333 48.712 C 256.529 48.906,256.167 49.053,256.167 49.185 C 256.167 49.266,256.017 49.333,255.833 49.333 C 255.650 49.333,255.500 49.408,255.500 49.500 C 255.500 49.592,255.387 49.667,255.250 49.667 C 255.112 49.667,255.000 49.742,255.000 49.833 C 255.000 49.925,254.853 50.000,254.673 50.000 C 254.494 50.000,254.250 50.116,254.132 50.258 C 253.630 50.860,253.143 51.333,253.024 51.333 C 252.955 51.333,252.765 51.633,252.603 52.000 C 252.442 52.367,252.240 52.667,252.155 52.667 C 252.070 52.667,252.000 52.854,252.000 53.083 C 252.000 53.313,251.934 53.500,251.852 53.500 C 251.479 53.500,251.266 57.822,251.577 59.083 C 251.757 59.813,252.063 60.500,252.207 60.500 C 252.277 60.500,252.333 60.650,252.333 60.833 C 252.333 61.017,252.408 61.167,252.500 61.167 C 252.592 61.167,252.667 61.277,252.667 61.411 C 252.667 61.688,253.753 62.833,254.015 62.833 C 254.109 62.833,254.140 62.908,254.083 63.000 C 254.027 63.092,254.100 63.167,254.247 63.167 C 254.394 63.167,254.680 63.322,254.882 63.511 C 255.084 63.701,255.456 63.898,255.708 63.949 C 255.960 64.000,256.167 64.107,256.167 64.188 C 256.167 64.268,256.279 64.333,256.417 64.333 C 256.554 64.333,256.667 64.408,256.667 64.500 C 256.667 64.592,256.817 64.667,257.000 64.667 C 257.183 64.667,257.333 64.733,257.333 64.814 C 257.333 64.896,257.671 65.013,258.083 65.075 C 258.496 65.136,258.833 65.257,258.833 65.344 C 258.833 65.430,259.021 65.500,259.250 65.500 C 259.479 65.500,259.667 65.556,259.668 65.625 C 259.670 65.794,260.494 66.167,260.867 66.167 C 261.032 66.167,261.167 66.236,261.167 66.320 C 261.167 66.404,261.410 66.527,261.708 66.592 C 262.006 66.658,262.371 66.851,262.519 67.022 C 262.668 67.193,262.874 67.333,262.978 67.333 C 263.082 67.333,263.167 67.446,263.167 67.583 C 263.167 67.721,263.242 67.833,263.333 67.833 C 263.642 67.833,263.503 68.827,263.137 69.249 C 262.937 69.479,262.599 69.667,262.387 69.667 C 262.174 69.667,262.000 69.742,262.000 69.833 C 262.000 69.936,261.194 70.000,259.917 70.000 C 258.639 70.000,257.833 69.936,257.833 69.833 C 257.833 69.742,257.496 69.667,257.083 69.667 C 256.671 69.667,256.333 69.592,256.333 69.500 C 256.333 69.408,256.075 69.333,255.760 69.333 C 255.444 69.333,255.145 69.267,255.095 69.186 C 255.045 69.105,254.591 68.987,254.086 68.924 C 253.580 68.861,253.167 68.740,253.167 68.655 C 253.167 68.409,252.168 68.475,251.905 68.738 C 251.774 68.869,251.667 69.277,251.667 69.645 C 251.667 70.013,251.596 70.357,251.510 70.411 C 251.423 70.464,251.301 71.031,251.238 71.670 C 251.175 72.310,251.058 72.833,250.978 72.833 C 250.899 72.833,250.833 73.171,250.833 73.583 C 250.833 73.996,250.758 74.333,250.667 74.333 C 249.833 74.333,250.827 75.275,251.830 75.435 C 252.202 75.495,252.548 75.609,252.597 75.689 C 252.646 75.768,252.944 75.833,253.260 75.833 C 253.575 75.833,253.833 75.908,253.833 76.000 C 253.833 76.092,254.090 76.167,254.403 76.167 C 254.716 76.167,255.002 76.257,255.039 76.367 C 255.137 76.662,264.193 76.670,264.292 76.375 C 264.333 76.250,264.657 76.167,265.097 76.167 C 265.502 76.167,265.833 76.092,265.833 76.000 C 265.833 75.908,266.021 75.833,266.250 75.833 C 266.479 75.833,266.667 75.767,266.667 75.685 C 266.667 75.604,266.929 75.488,267.250 75.428 C 267.571 75.367,267.833 75.247,267.833 75.159 C 267.833 75.072,267.967 75.000,268.130 75.000 C 268.293 75.000,268.535 74.850,268.667 74.667 C 268.799 74.483,268.977 74.333,269.062 74.333 C 269.197 74.333,269.807 73.717,270.587 72.792 C 270.723 72.631,270.833 72.387,270.833 72.250 C 270.833 72.112,270.908 72.000,271.000 72.000 C 271.092 72.000,271.167 71.828,271.167 71.617 C 271.167 71.406,271.260 71.140,271.375 71.025 C 271.662 70.738,271.655 65.588,271.367 65.300 C 271.257 65.190,271.167 64.944,271.167 64.753 C 271.167 64.563,271.017 64.299,270.833 64.167 C 270.650 64.035,270.500 63.834,270.500 63.721 C 270.500 63.501,269.941 62.907,269.356 62.504 C 269.159 62.369,268.957 62.126,268.905 61.963 C 268.853 61.800,268.666 61.667,268.489 61.667 C 268.312 61.667,268.167 61.593,268.167 61.503 C 268.167 61.413,267.979 61.293,267.750 61.235 C 267.521 61.178,267.333 61.064,267.333 60.982 C 267.333 60.900,267.183 60.833,267.000 60.833 C 266.817 60.833,266.667 60.758,266.667 60.667 C 266.667 60.575,266.554 60.500,266.417 60.500 C 266.279 60.500,266.167 60.433,266.167 60.352 C 266.167 60.270,265.904 60.155,265.583 60.094 C 265.262 60.034,265.000 59.913,265.000 59.826 C 265.000 59.738,264.775 59.667,264.500 59.667 C 264.225 59.667,264.000 59.592,264.000 59.500 C 264.000 59.408,263.813 59.333,263.583 59.333 C 263.354 59.333,263.167 59.262,263.167 59.174 C 263.167 59.087,262.904 58.966,262.583 58.906 C 262.262 58.845,262.000 58.730,262.000 58.648 C 262.000 58.567,261.829 58.500,261.620 58.500 C 261.411 58.500,261.132 58.350,261.000 58.167 C 260.868 57.983,260.653 57.833,260.523 57.833 C 259.441 57.833,259.110 56.285,259.988 55.340 C 260.307 54.997,266.512 54.952,266.625 55.292 C 266.663 55.406,266.913 55.500,267.181 55.500 C 267.448 55.500,267.667 55.575,267.667 55.667 C 267.667 55.758,268.042 55.833,268.500 55.833 L 269.333 55.833 269.333 55.083 C 269.333 54.671,269.408 54.333,269.500 54.333 C 269.592 54.333,269.667 54.071,269.667 53.750 C 269.667 53.429,269.742 53.167,269.833 53.167 C 269.925 53.167,270.000 52.829,270.000 52.417 C 270.000 52.004,270.065 51.667,270.144 51.667 C 270.324 51.667,270.535 49.952,270.399 49.597 C 270.339 49.441,270.101 49.333,269.816 49.333 C 269.550 49.333,269.333 49.267,269.333 49.186 C 269.333 48.981,267.960 48.712,266.125 48.557 C 265.506 48.505,265.000 48.396,265.000 48.315 C 265.000 48.233,263.725 48.167,262.167 48.167 C 260.591 48.167,259.333 48.233,259.333 48.317 M300.833 48.317 C 300.833 48.447,299.851 48.635,298.962 48.675 C 298.803 48.682,298.630 48.758,298.577 48.844 C 298.524 48.930,298.297 49.000,298.073 49.000 C 297.850 49.000,297.667 49.075,297.667 49.167 C 297.667 49.258,297.517 49.333,297.333 49.333 C 297.150 49.333,297.000 49.408,297.000 49.500 C 297.000 49.592,296.887 49.667,296.750 49.667 C 296.612 49.667,296.500 49.742,296.500 49.833 C 296.500 49.925,296.348 50.000,296.161 50.000 C 295.975 50.000,295.780 50.112,295.727 50.250 C 295.674 50.387,295.524 50.500,295.393 50.500 C 295.091 50.500,292.667 52.904,292.667 53.203 C 292.667 53.326,292.517 53.534,292.334 53.666 C 292.151 53.798,291.955 54.152,291.899 54.453 C 291.842 54.754,291.730 55.000,291.648 55.000 C 291.567 55.000,291.500 55.112,291.500 55.250 C 291.500 55.387,291.425 55.500,291.333 55.500 C 291.242 55.500,291.167 55.650,291.167 55.833 C 291.167 56.017,291.092 56.167,291.000 56.167 C 290.908 56.167,290.833 56.354,290.833 56.583 C 290.833 56.813,290.771 57.000,290.694 57.000 C 290.618 57.000,290.544 57.094,290.530 57.208 C 290.515 57.323,290.456 57.848,290.398 58.375 C 290.340 58.902,290.226 59.333,290.146 59.333 C 290.066 59.333,290.000 60.721,290.000 62.417 C 290.000 64.361,290.062 65.500,290.167 65.500 C 290.258 65.500,290.333 65.833,290.333 66.240 C 290.333 66.647,290.404 67.024,290.490 67.077 C 290.576 67.130,290.618 67.322,290.583 67.504 C 290.548 67.685,290.590 67.833,290.676 67.833 C 290.763 67.833,290.833 67.968,290.833 68.133 C 290.833 68.506,291.206 69.330,291.375 69.332 C 291.444 69.333,291.500 69.483,291.500 69.667 C 291.500 69.850,291.556 70.000,291.625 70.001 C 291.694 70.001,291.889 70.338,292.058 70.751 C 292.228 71.163,292.434 71.500,292.517 71.500 C 292.599 71.500,292.667 71.581,292.667 71.680 C 292.667 71.954,294.740 74.000,295.017 74.000 C 295.151 74.000,295.368 74.150,295.500 74.333 C 295.632 74.517,295.836 74.667,295.953 74.667 C 296.071 74.667,296.167 74.723,296.168 74.792 C 296.169 74.959,297.133 75.500,297.430 75.500 C 297.560 75.500,297.667 75.575,297.667 75.667 C 297.667 75.758,297.854 75.833,298.083 75.833 C 298.313 75.833,298.500 75.908,298.500 76.000 C 298.500 76.092,298.747 76.167,299.050 76.167 C 299.352 76.167,299.694 76.260,299.808 76.375 C 300.104 76.670,306.565 76.669,306.860 76.373 C 306.974 76.260,307.277 76.167,307.533 76.167 C 307.790 76.167,308.000 76.092,308.000 76.000 C 308.000 75.908,308.188 75.833,308.417 75.833 C 308.646 75.833,308.833 75.767,308.833 75.685 C 308.833 75.604,309.096 75.488,309.417 75.428 C 309.737 75.367,310.000 75.247,310.000 75.159 C 310.000 75.072,310.112 75.000,310.249 75.000 C 310.385 75.000,310.591 74.850,310.705 74.667 C 310.820 74.483,311.013 74.333,311.136 74.333 C 311.321 74.333,311.841 73.883,313.156 72.583 C 313.682 72.063,314.167 71.502,314.167 71.412 C 314.167 71.356,314.279 71.197,314.417 71.060 C 314.554 70.922,314.667 70.665,314.667 70.488 C 314.667 70.311,314.742 70.167,314.833 70.167 C 314.925 70.167,315.000 70.054,315.000 69.917 C 315.000 69.779,315.075 69.667,315.167 69.667 C 315.258 69.667,315.333 69.479,315.333 69.250 C 315.333 69.021,315.400 68.833,315.481 68.833 C 315.562 68.833,315.680 68.421,315.743 67.917 C 315.806 67.412,315.927 67.000,316.012 67.000 C 316.097 67.000,316.167 66.662,316.167 66.250 C 316.167 65.837,316.242 65.500,316.333 65.500 C 316.438 65.500,316.500 64.361,316.500 62.417 C 316.500 60.472,316.438 59.333,316.333 59.333 C 316.242 59.333,316.167 58.996,316.167 58.583 C 316.167 58.171,316.101 57.833,316.022 57.833 C 315.942 57.833,315.837 57.480,315.788 57.047 C 315.739 56.615,315.617 56.233,315.516 56.200 C 315.416 56.166,315.333 55.994,315.333 55.817 C 315.333 55.479,315.060 54.919,314.708 54.536 C 314.594 54.412,314.500 54.202,314.500 54.071 C 314.500 53.940,314.425 53.833,314.333 53.833 C 314.242 53.833,314.167 53.717,314.167 53.575 C 314.167 53.257,311.414 50.500,311.097 50.500 C 310.972 50.500,310.826 50.387,310.773 50.250 C 310.720 50.112,310.525 50.000,310.339 50.000 C 310.152 50.000,310.000 49.925,310.000 49.833 C 310.000 49.742,309.887 49.667,309.750 49.667 C 309.612 49.667,309.500 49.592,309.500 49.500 C 309.500 49.408,309.350 49.333,309.167 49.333 C 308.983 49.333,308.833 49.258,308.833 49.167 C 308.833 49.075,308.658 49.000,308.444 49.000 C 308.231 49.000,308.004 48.948,307.941 48.885 C 307.809 48.753,307.553 48.698,306.458 48.563 C 306.023 48.510,305.667 48.399,305.667 48.317 C 305.667 48.234,304.579 48.167,303.250 48.167 C 301.921 48.167,300.833 48.234,300.833 48.317 M331.167 48.316 C 331.167 48.440,329.667 48.565,326.542 48.701 C 326.244 48.714,326.000 48.787,326.000 48.862 C 326.000 48.938,325.587 49.000,325.083 49.000 C 324.579 49.000,324.167 49.075,324.167 49.167 C 324.167 49.258,323.904 49.333,323.583 49.333 C 323.262 49.333,323.000 49.408,323.000 49.500 C 323.000 49.592,322.737 49.667,322.417 49.667 L 321.833 49.667 321.833 62.750 L 321.833 75.833 325.750 75.833 L 329.667 75.833 329.667 65.667 L 329.667 55.500 330.240 55.500 C 330.556 55.500,330.860 55.425,330.917 55.333 C 330.973 55.242,331.653 55.167,332.427 55.167 C 333.253 55.167,333.833 55.235,333.833 55.333 C 333.833 55.425,334.058 55.500,334.333 55.500 C 334.608 55.500,334.833 55.575,334.833 55.667 C 334.833 55.758,334.946 55.833,335.083 55.833 C 335.221 55.833,335.333 55.903,335.333 55.989 C 335.333 56.074,335.473 56.188,335.643 56.243 C 335.813 56.297,336.091 56.677,336.261 57.087 C 336.430 57.498,336.628 57.833,336.701 57.833 C 336.774 57.833,336.833 58.171,336.833 58.583 C 336.833 58.996,336.908 59.333,337.000 59.333 C 337.109 59.333,337.167 62.194,337.167 67.583 L 337.167 75.833 341.093 75.833 L 345.019 75.833 344.968 65.675 C 344.928 57.826,344.869 55.469,344.708 55.308 C 344.594 55.194,344.500 54.928,344.500 54.717 C 344.500 54.506,344.425 54.333,344.333 54.333 C 344.242 54.333,344.167 54.221,344.167 54.083 C 344.167 53.946,344.092 53.833,344.000 53.833 C 343.908 53.833,343.833 53.713,343.833 53.567 C 343.833 52.764,341.891 50.366,341.016 50.089 C 340.824 50.027,340.667 49.908,340.667 49.822 C 340.667 49.737,340.517 49.667,340.333 49.667 C 340.150 49.667,340.000 49.600,340.000 49.519 C 340.000 49.438,339.869 49.325,339.708 49.268 C 339.548 49.211,339.192 49.083,338.917 48.985 C 338.251 48.747,337.656 48.653,336.208 48.555 C 335.544 48.510,335.000 48.405,335.000 48.320 C 335.000 48.236,334.140 48.167,333.083 48.167 C 332.029 48.167,331.167 48.234,331.167 48.316 M156.250 48.674 C 155.975 48.759,155.619 48.787,155.458 48.736 C 155.298 48.686,155.167 48.724,155.167 48.822 C 155.167 48.922,154.837 49.000,154.417 49.000 C 154.004 49.000,153.667 49.075,153.667 49.167 C 153.667 49.258,153.442 49.333,153.167 49.333 C 152.892 49.333,152.667 49.408,152.667 49.500 C 152.667 49.592,152.404 49.667,152.083 49.667 C 151.762 49.667,151.500 49.727,151.500 49.801 C 151.500 49.875,151.181 50.007,150.792 50.093 L 150.083 50.250 150.083 63.000 L 150.083 75.750 154.042 75.795 L 158.000 75.839 158.000 65.908 C 158.000 54.785,157.915 55.500,159.238 55.500 C 159.657 55.500,160.000 55.425,160.000 55.333 C 160.000 55.239,160.472 55.167,161.083 55.167 C 161.694 55.167,162.167 55.239,162.167 55.333 C 162.167 55.425,162.579 55.500,163.083 55.500 C 163.587 55.500,164.000 55.575,164.000 55.667 C 164.000 55.758,164.296 55.833,164.657 55.833 C 165.018 55.833,165.360 55.908,165.417 56.000 C 165.684 56.432,166.500 56.181,166.500 55.667 C 166.500 55.392,166.575 55.167,166.667 55.167 C 166.758 55.167,166.833 54.871,166.833 54.510 C 166.833 54.149,166.908 53.807,167.000 53.750 C 167.092 53.693,167.167 53.351,167.167 52.990 C 167.167 52.629,167.232 52.333,167.312 52.333 C 167.491 52.333,167.727 49.788,167.589 49.351 C 167.519 49.130,167.275 49.004,166.786 48.936 C 166.399 48.881,165.858 48.789,165.583 48.731 C 164.763 48.556,156.791 48.508,156.250 48.674 M237.792 48.782 C 237.517 48.853,237.500 49.640,237.500 62.346 L 237.500 75.833 241.667 75.833 L 245.833 75.833 245.833 62.351 C 245.833 50.211,245.807 48.859,245.570 48.768 C 245.270 48.653,238.237 48.665,237.792 48.782 M276.781 48.775 C 276.718 48.838,276.667 54.951,276.667 62.361 L 276.667 75.833 280.668 75.833 L 284.669 75.833 284.626 62.292 L 284.583 48.750 280.739 48.705 C 278.625 48.681,276.844 48.712,276.781 48.775 M62.460 50.374 C 62.547 51.788,62.638 51.967,62.651 50.750 C 62.657 50.200,62.602 49.656,62.528 49.540 C 62.455 49.425,62.424 49.800,62.460 50.374 M382.236 50.101 C 382.381 50.157,382.500 50.336,382.500 50.499 C 382.500 50.662,382.612 51.010,382.749 51.273 C 382.886 51.535,382.998 51.919,382.999 52.125 C 383.000 52.331,383.075 52.500,383.167 52.500 C 383.258 52.500,383.333 52.650,383.333 52.833 C 383.333 53.017,383.408 53.167,383.500 53.167 C 383.592 53.167,383.667 53.354,383.667 53.583 C 383.667 53.813,383.732 54.000,383.813 54.000 C 383.931 54.000,384.126 54.557,384.232 55.194 C 384.242 55.256,384.306 55.362,384.375 55.431 C 384.444 55.499,384.500 55.731,384.500 55.944 C 384.500 56.158,384.575 56.333,384.667 56.333 C 384.758 56.333,384.833 56.483,384.833 56.667 C 384.833 56.850,384.908 57.000,385.000 57.000 C 385.092 57.000,385.167 57.188,385.167 57.417 C 385.167 57.646,385.242 57.833,385.333 57.833 C 385.425 57.833,385.500 58.002,385.499 58.208 C 385.498 58.693,386.025 60.167,386.200 60.167 C 386.273 60.167,386.333 60.392,386.333 60.667 C 386.333 60.942,386.408 61.167,386.500 61.167 C 386.592 61.167,386.667 61.279,386.667 61.417 C 386.667 61.633,386.059 61.667,382.196 61.667 L 377.724 61.667 377.895 60.833 C 377.989 60.375,378.126 60.000,378.200 60.000 C 378.273 60.000,378.333 59.850,378.333 59.667 C 378.333 59.483,378.408 59.333,378.500 59.333 C 378.592 59.333,378.667 59.150,378.667 58.927 C 378.667 58.703,378.732 58.479,378.811 58.430 C 378.891 58.381,379.004 58.039,379.063 57.670 C 379.122 57.302,379.245 57.000,379.335 57.000 C 379.426 57.000,379.500 56.813,379.500 56.583 C 379.500 56.354,379.575 56.167,379.667 56.167 C 379.758 56.167,379.833 55.942,379.833 55.667 C 379.833 55.392,379.907 55.167,379.998 55.167 C 380.089 55.167,380.211 54.867,380.269 54.500 C 380.328 54.133,380.441 53.833,380.521 53.833 C 380.601 53.833,380.667 53.683,380.667 53.500 C 380.667 53.317,380.742 53.167,380.833 53.167 C 380.925 53.167,381.000 52.979,381.000 52.750 C 381.000 52.521,381.075 52.333,381.167 52.333 C 381.258 52.333,381.333 52.108,381.333 51.833 C 381.333 51.558,381.407 51.333,381.498 51.333 C 381.589 51.333,381.711 51.033,381.769 50.667 C 381.828 50.300,381.898 50.000,381.924 50.000 C 381.951 50.000,382.091 50.046,382.236 50.101 M99.417 50.447 C 99.417 50.552,99.473 50.695,99.542 50.764 C 99.610 50.833,99.667 51.064,99.667 51.278 C 99.667 51.492,99.742 51.667,99.833 51.667 C 99.925 51.667,100.000 51.817,100.000 52.000 C 100.000 52.183,100.075 52.333,100.167 52.333 C 100.258 52.333,100.333 52.521,100.333 52.750 C 100.333 52.979,100.404 53.167,100.490 53.167 C 100.576 53.167,100.697 53.504,100.759 53.917 C 100.821 54.329,100.938 54.667,101.019 54.667 C 101.100 54.667,101.167 54.854,101.167 55.083 C 101.167 55.313,101.242 55.500,101.333 55.500 C 101.425 55.500,101.500 55.650,101.500 55.833 C 101.500 56.017,101.568 56.167,101.651 56.167 C 101.734 56.167,101.854 56.542,101.917 57.000 C 101.980 57.458,102.099 57.833,102.182 57.833 C 102.265 57.833,102.333 57.983,102.333 58.167 C 102.333 58.350,102.408 58.500,102.500 58.500 C 102.592 58.500,102.667 58.688,102.667 58.917 C 102.667 59.146,102.732 59.333,102.812 59.333 C 102.929 59.333,103.101 59.958,103.234 60.861 C 103.243 60.922,103.306 61.028,103.375 61.097 C 103.894 61.616,103.511 61.667,99.083 61.667 L 94.667 61.667 94.667 61.250 C 94.667 61.021,94.742 60.833,94.833 60.833 C 94.925 60.833,95.000 60.683,95.000 60.500 C 95.000 60.317,95.068 60.167,95.151 60.167 C 95.234 60.167,95.354 59.792,95.417 59.333 C 95.480 58.875,95.599 58.500,95.682 58.500 C 95.765 58.500,95.833 58.350,95.833 58.167 C 95.833 57.983,95.908 57.833,96.000 57.833 C 96.092 57.833,96.167 57.646,96.167 57.417 C 96.167 57.188,96.242 57.000,96.333 57.000 C 96.425 57.000,96.500 56.854,96.500 56.677 C 96.500 56.499,96.571 56.309,96.657 56.256 C 96.743 56.203,96.864 55.823,96.926 55.413 C 96.987 55.002,97.104 54.667,97.186 54.667 C 97.267 54.667,97.333 54.517,97.333 54.333 C 97.333 54.150,97.408 54.000,97.500 54.000 C 97.592 54.000,97.667 53.813,97.667 53.583 C 97.667 53.354,97.733 53.167,97.814 53.167 C 97.896 53.167,98.013 52.829,98.075 52.417 C 98.136 52.004,98.257 51.667,98.344 51.667 C 98.430 51.667,98.500 51.479,98.500 51.250 C 98.500 51.021,98.575 50.833,98.667 50.833 C 98.758 50.833,98.833 50.678,98.833 50.488 C 98.833 50.248,98.923 50.159,99.125 50.198 C 99.285 50.229,99.417 50.341,99.417 50.447 M54.375 51.284 C 54.169 51.324,54.000 51.419,54.000 51.496 C 54.000 51.668,54.638 51.515,54.762 51.313 C 54.812 51.233,54.830 51.177,54.802 51.189 C 54.773 51.202,54.581 51.245,54.375 51.284 M54.057 56.083 C 54.058 56.817,54.087 57.096,54.122 56.704 C 54.157 56.312,54.157 55.712,54.121 55.371 C 54.085 55.029,54.057 55.350,54.057 56.083 M135.070 55.101 C 135.459 55.251,135.473 66.667,135.083 66.667 C 134.946 66.667,134.833 66.742,134.833 66.833 C 134.833 66.925,134.608 67.000,134.333 67.000 C 134.058 67.000,133.833 67.075,133.833 67.167 C 133.833 67.258,133.646 67.333,133.417 67.333 C 133.188 67.333,133.000 67.408,133.000 67.500 C 133.000 67.592,132.559 67.667,132.010 67.667 C 131.465 67.667,130.973 67.592,130.917 67.500 C 130.860 67.408,130.631 67.333,130.407 67.333 C 130.183 67.333,130.000 67.274,130.000 67.201 C 130.000 67.128,129.664 66.930,129.254 66.761 C 128.843 66.591,128.463 66.313,128.409 66.143 C 128.355 65.973,128.241 65.833,128.155 65.833 C 128.070 65.833,128.000 65.679,128.000 65.490 C 128.000 65.301,127.925 65.193,127.833 65.250 C 127.742 65.307,127.667 65.205,127.667 65.024 C 127.667 64.843,127.573 64.663,127.458 64.625 C 127.303 64.573,127.250 63.854,127.250 61.786 C 127.250 59.793,127.308 58.959,127.458 58.809 C 127.573 58.694,127.667 58.444,127.667 58.253 C 127.667 58.063,127.817 57.799,128.000 57.667 C 128.183 57.535,128.333 57.336,128.333 57.226 C 128.333 56.945,129.809 55.500,130.096 55.500 C 130.227 55.500,130.333 55.430,130.333 55.344 C 130.333 55.066,134.430 54.856,135.070 55.101 M184.000 55.333 C 184.000 55.425,184.171 55.500,184.380 55.500 C 184.589 55.500,184.868 55.650,185.000 55.833 C 185.132 56.017,185.325 56.167,185.428 56.167 C 185.720 56.167,186.333 56.760,186.333 57.043 C 186.333 57.183,186.446 57.341,186.583 57.394 C 186.721 57.446,186.833 57.642,186.833 57.828 C 186.833 58.014,186.908 58.167,187.000 58.167 C 187.092 58.167,187.167 58.354,187.167 58.583 C 187.167 58.813,187.242 59.000,187.333 59.000 C 187.425 59.000,187.500 59.262,187.500 59.583 C 187.500 59.904,187.575 60.167,187.667 60.167 C 187.770 60.167,187.833 61.028,187.833 62.417 C 187.833 63.806,187.770 64.667,187.667 64.667 C 187.575 64.667,187.500 64.929,187.500 65.250 C 187.500 65.571,187.425 65.833,187.333 65.833 C 187.242 65.833,187.167 65.983,187.167 66.167 C 187.167 66.350,187.098 66.500,187.013 66.500 C 186.929 66.500,186.811 66.720,186.752 66.990 C 186.632 67.537,185.173 69.141,184.883 69.044 C 184.781 69.010,184.648 69.061,184.589 69.158 C 184.529 69.254,184.297 69.333,184.073 69.333 C 183.850 69.333,183.667 69.408,183.667 69.500 C 183.667 69.592,183.254 69.667,182.750 69.667 C 182.246 69.667,181.833 69.592,181.833 69.500 C 181.833 69.408,181.646 69.333,181.417 69.333 C 181.188 69.333,181.000 69.258,181.000 69.167 C 181.000 69.075,180.882 69.000,180.737 69.000 C 180.395 69.000,179.000 67.605,179.000 67.263 C 179.000 67.118,178.925 67.000,178.833 67.000 C 178.742 67.000,178.667 66.887,178.667 66.750 C 178.667 66.612,178.592 66.500,178.500 66.500 C 178.408 66.500,178.333 66.281,178.333 66.014 C 178.333 65.747,178.240 65.497,178.125 65.458 C 177.968 65.406,177.917 64.613,177.917 62.250 C 177.917 59.887,177.968 59.094,178.125 59.042 C 178.240 59.003,178.333 58.791,178.333 58.569 C 178.333 58.348,178.408 58.167,178.500 58.167 C 178.592 58.167,178.667 58.051,178.667 57.909 C 178.667 57.767,178.854 57.477,179.083 57.265 C 179.313 57.052,179.500 56.756,179.500 56.606 C 179.500 56.443,179.636 56.333,179.839 56.333 C 180.025 56.333,180.220 56.221,180.273 56.083 C 180.326 55.946,180.511 55.833,180.684 55.833 C 180.858 55.833,181.000 55.758,181.000 55.667 C 181.000 55.575,181.150 55.500,181.333 55.500 C 181.517 55.500,181.667 55.425,181.667 55.333 C 181.667 55.238,182.167 55.167,182.833 55.167 C 183.500 55.167,184.000 55.238,184.000 55.333 M304.500 55.333 C 304.500 55.425,304.671 55.500,304.880 55.500 C 305.089 55.500,305.368 55.650,305.500 55.833 C 305.632 56.017,305.825 56.167,305.928 56.167 C 306.220 56.167,306.833 56.760,306.833 57.043 C 306.833 57.183,306.946 57.341,307.083 57.394 C 307.221 57.446,307.333 57.642,307.333 57.828 C 307.333 58.014,307.408 58.167,307.500 58.167 C 307.592 58.167,307.667 58.354,307.667 58.583 C 307.667 58.813,307.742 59.000,307.833 59.000 C 307.925 59.000,308.000 59.262,308.000 59.583 C 308.000 59.904,308.056 60.167,308.125 60.167 C 308.194 60.167,308.250 61.179,308.250 62.417 C 308.250 63.654,308.194 64.667,308.125 64.667 C 308.056 64.667,308.000 64.929,308.000 65.250 C 308.000 65.571,307.925 65.833,307.833 65.833 C 307.742 65.833,307.667 65.983,307.667 66.167 C 307.667 66.350,307.610 66.500,307.541 66.500 C 307.471 66.500,307.307 66.743,307.175 67.040 C 306.902 67.659,305.501 69.187,305.314 69.072 C 305.246 69.029,305.143 69.071,305.085 69.164 C 305.027 69.257,304.797 69.333,304.573 69.333 C 304.350 69.333,304.167 69.408,304.167 69.500 C 304.167 69.592,303.754 69.667,303.250 69.667 C 302.746 69.667,302.333 69.592,302.333 69.500 C 302.333 69.408,302.146 69.333,301.917 69.333 C 301.688 69.333,301.500 69.254,301.500 69.157 C 301.500 69.060,301.424 69.027,301.331 69.085 C 301.238 69.142,300.820 68.846,300.401 68.428 C 299.983 68.009,299.580 67.667,299.505 67.667 C 299.431 67.667,299.321 67.404,299.261 67.083 C 299.201 66.762,299.080 66.500,298.992 66.500 C 298.905 66.500,298.833 66.350,298.833 66.167 C 298.833 65.983,298.758 65.833,298.667 65.833 C 298.575 65.833,298.500 65.571,298.500 65.250 C 298.500 64.929,298.425 64.667,298.333 64.667 C 298.230 64.667,298.167 63.806,298.167 62.417 C 298.167 61.028,298.230 60.167,298.333 60.167 C 298.425 60.167,298.500 59.904,298.500 59.583 C 298.500 59.262,298.575 59.000,298.667 59.000 C 298.758 59.000,298.833 58.813,298.833 58.583 C 298.833 58.354,298.908 58.167,299.000 58.167 C 299.092 58.167,299.167 58.014,299.167 57.828 C 299.167 57.642,299.279 57.446,299.417 57.394 C 299.554 57.341,299.667 57.183,299.667 57.043 C 299.667 56.744,300.287 56.167,300.609 56.167 C 300.732 56.167,300.833 56.092,300.833 56.000 C 300.833 55.908,300.983 55.833,301.167 55.833 C 301.350 55.833,301.500 55.758,301.500 55.667 C 301.500 55.575,301.612 55.500,301.750 55.500 C 301.887 55.500,302.000 55.425,302.000 55.333 C 302.000 55.237,302.528 55.167,303.250 55.167 C 303.972 55.167,304.500 55.237,304.500 55.333 M62.539 60.333 C 62.539 60.654,62.573 60.785,62.615 60.625 C 62.657 60.465,62.657 60.202,62.615 60.042 C 62.573 59.881,62.539 60.012,62.539 60.333 M62.464 61.500 C 62.424 61.775,62.453 62.000,62.529 62.000 C 62.605 62.000,62.667 61.775,62.667 61.500 C 62.667 61.225,62.638 61.000,62.602 61.000 C 62.567 61.000,62.505 61.225,62.464 61.500 M52.836 67.042 C 52.838 67.345,52.869 67.369,53.000 67.167 C 53.209 66.844,53.209 66.667,53.000 66.667 C 52.908 66.667,52.834 66.835,52.836 67.042 M60.949 70.732 C 60.881 70.906,60.865 71.087,60.913 71.135 C 61.065 71.287,61.199 71.038,61.135 70.721 C 61.076 70.431,61.068 70.432,60.949 70.732 M47.710 81.618 C 47.596 81.861,47.534 82.090,47.572 82.127 C 47.672 82.227,48.031 81.508,47.969 81.330 C 47.940 81.246,47.824 81.376,47.710 81.618 M46.410 83.988 C 46.462 84.074,46.429 84.191,46.336 84.248 C 46.243 84.306,46.167 84.438,46.167 84.542 C 46.167 84.645,46.277 84.585,46.411 84.407 C 46.704 84.020,46.730 83.833,46.490 83.833 C 46.393 83.833,46.357 83.903,46.410 83.988 M54.839 86.822 C 54.628 87.217,54.618 87.383,54.813 87.262 C 54.960 87.172,55.190 86.500,55.074 86.500 C 55.040 86.500,54.934 86.645,54.839 86.822 M53.690 88.857 C 53.573 89.045,53.514 89.236,53.558 89.281 C 53.603 89.325,53.727 89.199,53.833 89.000 C 54.085 88.529,53.968 88.412,53.690 88.857 M42.431 89.941 C 42.272 90.354,42.447 90.411,42.659 90.014 C 42.761 89.823,42.776 89.667,42.690 89.667 C 42.605 89.667,42.488 89.790,42.431 89.941 M41.535 91.090 C 41.417 91.224,41.370 91.333,41.431 91.333 C 41.491 91.333,41.447 91.446,41.333 91.583 C 41.219 91.721,41.167 91.833,41.218 91.833 C 41.269 91.833,41.471 91.608,41.667 91.333 C 42.028 90.826,41.929 90.643,41.535 91.090 M39.797 93.210 C 39.356 93.719,39.269 94.105,39.700 93.640 C 40.303 92.990,40.537 92.668,40.401 92.677 C 40.318 92.682,40.046 92.922,39.797 93.210 M50.769 93.411 C 50.617 93.643,50.551 93.833,50.623 93.833 C 50.785 93.833,51.216 93.161,51.117 93.062 C 51.078 93.022,50.921 93.179,50.769 93.411 M49.841 94.652 C 49.739 94.844,49.724 95.000,49.810 95.000 C 49.981 95.000,50.217 94.495,50.101 94.379 C 50.060 94.338,49.943 94.461,49.841 94.652 M46.207 99.164 C 45.905 99.648,45.954 99.713,46.333 99.333 C 46.687 98.980,46.747 98.833,46.540 98.833 C 46.470 98.833,46.320 98.982,46.207 99.164 M39.224 101.686 C 39.576 101.872,39.903 101.986,39.950 101.938 C 40.032 101.857,38.908 101.325,38.688 101.341 C 38.630 101.345,38.872 101.500,39.224 101.686 M23.875 105.777 C 23.622 105.879,23.595 106.500,23.843 106.500 C 23.940 106.500,23.970 106.420,23.910 106.322 C 23.849 106.224,23.939 106.039,24.108 105.911 C 24.411 105.682,24.287 105.611,23.875 105.777 M34.917 109.262 L 34.417 109.690 34.958 109.392 C 35.256 109.229,35.500 109.036,35.500 108.964 C 35.500 108.775,35.468 108.791,34.917 109.262 M33.125 110.429 C 32.873 110.565,32.667 110.705,32.667 110.740 C 32.667 110.882,33.337 110.613,33.515 110.399 C 33.753 110.111,33.703 110.115,33.125 110.429 " stroke="none" fill="#045c04" fill-rule="evenodd"></path><path id="path3" d="M38.167 5.484 C 37.938 5.648,37.262 6.067,36.667 6.414 C 32.956 8.580,30.825 10.247,31.487 10.468 C 31.675 10.530,32.805 11.431,33.619 12.167 C 33.822 12.350,34.022 12.500,34.063 12.500 C 34.332 12.500,40.833 18.965,40.833 19.232 C 40.833 19.289,41.064 19.578,41.347 19.874 C 41.629 20.169,41.983 20.619,42.133 20.872 C 42.283 21.126,42.464 21.333,42.536 21.333 C 42.608 21.333,42.667 21.411,42.667 21.507 C 42.667 21.687,42.831 21.912,43.438 22.564 C 43.634 22.773,43.845 23.107,43.908 23.306 C 43.971 23.504,44.092 23.667,44.178 23.667 C 44.263 23.667,44.333 23.763,44.333 23.880 C 44.333 23.997,44.483 24.201,44.667 24.333 C 44.850 24.465,45.000 24.707,45.000 24.870 C 45.000 25.033,45.070 25.167,45.155 25.167 C 45.241 25.167,45.364 25.335,45.428 25.542 C 45.492 25.748,45.595 25.954,45.655 26.000 C 45.891 26.178,46.462 27.104,46.581 27.500 C 46.649 27.729,46.829 28.067,46.980 28.250 C 47.387 28.745,47.833 29.600,47.833 29.887 C 47.833 30.025,47.892 30.164,47.964 30.194 C 48.085 30.245,48.265 30.600,49.312 32.844 C 49.507 33.263,49.667 33.694,49.667 33.803 C 49.667 33.911,49.742 34.000,49.833 34.000 C 49.925 34.000,50.000 34.108,50.000 34.240 C 50.000 34.372,50.077 34.528,50.171 34.586 C 50.363 34.704,51.333 34.321,51.333 34.126 C 51.333 34.057,51.479 34.000,51.657 34.000 C 51.835 34.000,52.027 33.925,52.083 33.833 C 52.140 33.742,52.332 33.667,52.510 33.667 C 52.688 33.667,52.833 33.600,52.833 33.519 C 52.833 33.437,53.105 33.319,53.437 33.257 C 53.769 33.195,54.163 33.083,54.312 33.008 C 54.756 32.786,55.855 32.348,56.250 32.236 C 56.342 32.210,56.660 32.114,56.958 32.023 C 57.256 31.931,57.501 31.908,57.503 31.970 C 57.504 32.032,57.578 31.971,57.667 31.833 C 58.018 31.290,57.936 30.995,56.671 28.250 C 56.418 27.700,56.108 27.006,55.981 26.708 C 55.855 26.410,55.695 26.167,55.626 26.167 C 55.557 26.167,55.500 26.017,55.500 25.833 C 55.500 25.650,55.442 25.500,55.371 25.500 C 55.300 25.500,55.093 25.163,54.912 24.752 C 54.731 24.340,54.527 24.002,54.458 24.002 C 54.390 24.001,54.333 23.887,54.333 23.750 C 54.333 23.613,54.258 23.500,54.167 23.500 C 54.075 23.500,54.000 23.350,54.000 23.167 C 54.000 22.983,53.925 22.833,53.833 22.833 C 53.742 22.833,53.667 22.747,53.667 22.641 C 53.667 22.463,51.410 18.854,51.182 18.667 C 51.126 18.621,50.863 18.249,50.598 17.841 C 50.333 17.432,49.940 16.908,49.725 16.676 C 49.510 16.443,49.333 16.193,49.333 16.119 C 49.333 16.045,49.146 15.797,48.917 15.568 C 48.688 15.339,48.500 15.090,48.500 15.015 C 48.500 14.940,48.144 14.500,47.708 14.038 C 47.273 13.576,46.692 12.915,46.417 12.570 C 45.836 11.841,41.524 7.531,41.023 7.178 C 40.837 7.047,40.722 6.878,40.769 6.803 C 40.815 6.728,40.753 6.667,40.631 6.667 C 40.509 6.667,40.042 6.329,39.592 5.917 C 38.666 5.066,38.725 5.084,38.167 5.484 M61.589 48.324 C 61.529 48.421,61.297 48.500,61.073 48.500 C 60.850 48.500,60.667 48.556,60.667 48.625 C 60.667 48.694,60.179 48.897,59.583 49.077 C 58.987 49.257,58.500 49.463,58.500 49.535 C 58.500 49.608,58.350 49.667,58.167 49.667 C 57.983 49.667,57.833 49.734,57.833 49.815 C 57.833 49.897,57.627 50.022,57.375 50.093 C 57.123 50.165,56.879 50.234,56.833 50.247 C 56.624 50.309,55.408 50.926,55.333 51.009 C 55.288 51.059,54.980 51.226,54.650 51.379 L 54.051 51.658 54.069 55.204 C 54.089 59.198,53.644 65.333,53.333 65.333 C 53.259 65.333,53.156 65.727,53.106 66.208 C 52.930 67.877,52.600 69.667,52.467 69.667 C 52.393 69.667,52.333 69.855,52.333 70.086 C 52.333 70.316,52.267 70.635,52.187 70.794 C 51.904 71.352,51.167 73.764,51.167 74.130 C 51.167 74.334,51.092 74.500,51.000 74.500 C 50.908 74.500,50.833 74.638,50.833 74.808 C 50.833 74.977,50.714 75.355,50.568 75.648 C 50.421 75.941,50.285 76.272,50.264 76.382 C 50.243 76.493,50.100 76.874,49.946 77.229 C 49.792 77.584,49.667 77.977,49.667 78.104 C 49.667 78.230,49.610 78.334,49.542 78.334 C 49.473 78.334,49.280 78.691,49.113 79.126 C 48.946 79.561,48.698 80.104,48.562 80.333 C 48.426 80.563,48.200 81.012,48.058 81.333 C 47.476 82.655,47.288 83.000,47.148 83.000 C 47.066 83.000,47.000 83.112,47.000 83.250 C 47.000 83.387,46.925 83.500,46.833 83.500 C 46.742 83.500,46.667 83.606,46.667 83.736 C 46.667 84.034,46.126 84.998,45.958 84.999 C 45.890 85.000,45.833 85.144,45.833 85.319 C 45.833 85.495,45.777 85.664,45.708 85.694 C 45.588 85.748,43.653 88.585,43.517 88.907 C 43.481 88.994,43.274 89.241,43.059 89.456 C 42.843 89.672,42.667 89.906,42.667 89.976 C 42.667 90.046,42.533 90.249,42.369 90.427 C 42.206 90.605,41.957 90.916,41.816 91.119 C 41.233 91.961,39.938 93.374,37.465 95.868 C 34.795 98.560,34.668 98.766,35.426 99.171 C 35.650 99.291,35.833 99.452,35.833 99.528 C 35.833 99.604,35.983 99.667,36.167 99.667 C 36.350 99.667,36.500 99.730,36.500 99.807 C 36.500 99.884,36.781 100.091,37.125 100.265 C 37.469 100.440,37.792 100.639,37.843 100.707 C 37.893 100.776,38.343 101.041,38.843 101.298 C 39.892 101.838,41.378 102.692,41.500 102.825 C 41.546 102.876,41.658 102.930,41.750 102.946 C 41.842 102.962,42.031 103.020,42.172 103.075 C 42.510 103.207,47.513 98.032,47.863 97.189 C 47.926 97.039,47.984 96.992,47.993 97.083 C 48.003 97.175,48.183 96.969,48.394 96.625 C 48.606 96.282,48.828 96.051,48.889 96.111 C 48.950 96.172,49.000 96.116,49.000 95.986 C 49.000 95.856,49.188 95.532,49.417 95.266 C 49.646 94.999,49.833 94.732,49.833 94.672 C 49.833 94.612,49.965 94.417,50.125 94.240 C 50.676 93.629,51.333 92.689,51.333 92.511 C 51.333 92.413,51.392 92.333,51.464 92.333 C 51.536 92.333,51.736 92.095,51.907 91.804 C 52.079 91.513,52.332 91.144,52.469 90.984 C 52.606 90.824,52.976 90.218,53.291 89.638 C 54.227 87.914,54.412 87.588,54.503 87.500 C 54.550 87.454,54.737 87.099,54.919 86.710 C 55.101 86.322,55.306 86.003,55.375 86.002 C 55.444 86.001,55.500 85.917,55.500 85.816 C 55.500 85.715,55.946 84.721,56.490 83.608 C 57.035 82.494,57.578 81.265,57.697 80.875 C 57.817 80.485,57.971 80.167,58.041 80.167 C 58.110 80.167,58.167 80.029,58.167 79.861 C 58.167 79.693,58.216 79.506,58.277 79.445 C 58.450 79.272,59.000 77.631,59.000 77.288 C 59.000 77.119,59.075 77.027,59.167 77.083 C 59.264 77.143,59.333 76.977,59.333 76.686 C 59.333 76.411,59.399 76.146,59.478 76.097 C 59.558 76.047,59.680 75.762,59.750 75.462 C 59.819 75.162,59.911 74.804,59.954 74.667 C 59.998 74.529,60.071 74.135,60.117 73.792 C 60.164 73.448,60.269 73.167,60.351 73.167 C 60.433 73.167,60.500 72.946,60.500 72.677 C 60.500 72.407,60.575 72.140,60.667 72.083 C 60.758 72.027,60.833 71.755,60.833 71.479 C 60.833 71.204,60.911 70.833,61.006 70.655 C 61.102 70.477,61.225 69.842,61.281 69.244 C 61.337 68.645,61.446 68.116,61.525 68.068 C 61.603 68.020,61.667 67.652,61.667 67.250 C 61.667 66.848,61.742 66.473,61.833 66.417 C 61.925 66.360,62.000 65.906,62.000 65.407 C 62.000 64.908,62.064 64.500,62.142 64.500 C 62.530 64.500,62.743 51.636,62.395 49.252 C 62.253 48.281,61.881 47.852,61.589 48.324 M30.833 101.667 C 30.833 101.758,30.739 101.833,30.623 101.833 C 30.508 101.833,30.211 102.021,29.964 102.250 C 29.717 102.479,29.436 102.667,29.341 102.667 C 29.245 102.667,29.167 102.742,29.167 102.833 C 29.167 102.925,29.090 103.000,28.996 103.000 C 28.794 103.000,27.441 103.862,27.361 104.042 C 27.331 104.110,27.168 104.167,27.000 104.167 C 26.832 104.167,26.669 104.229,26.639 104.305 C 26.581 104.450,25.093 105.411,24.292 105.821 C 24.040 105.951,23.833 106.107,23.833 106.169 C 23.833 106.326,24.430 107.000,24.569 107.000 C 24.631 107.000,24.862 107.169,25.083 107.375 C 25.742 107.991,25.977 108.167,26.146 108.167 C 26.234 108.167,26.331 108.224,26.361 108.294 C 26.445 108.485,28.143 109.667,28.334 109.667 C 28.425 109.667,28.500 109.723,28.500 109.792 C 28.500 109.860,28.857 110.138,29.292 110.409 C 29.727 110.681,30.137 110.981,30.202 111.076 C 30.362 111.310,32.148 111.299,32.298 111.063 C 32.363 110.960,32.876 110.585,33.438 110.230 C 35.061 109.203,36.907 107.897,37.150 107.603 C 37.273 107.455,37.432 107.333,37.503 107.333 C 38.263 107.333,38.853 105.894,38.166 105.715 C 37.983 105.667,37.833 105.576,37.833 105.512 C 37.833 105.448,37.571 105.293,37.250 105.167 C 36.929 105.041,36.667 104.891,36.667 104.834 C 36.667 104.777,36.348 104.591,35.958 104.421 C 35.569 104.251,35.137 103.984,35.000 103.829 C 34.862 103.674,34.581 103.494,34.375 103.429 C 34.169 103.364,34.000 103.241,34.000 103.155 C 34.000 103.070,33.899 103.000,33.776 103.000 C 33.653 103.000,33.418 102.852,33.254 102.671 C 33.090 102.490,32.803 102.293,32.616 102.234 C 32.429 102.174,32.124 101.985,31.940 101.813 C 31.585 101.483,30.833 101.383,30.833 101.667 " stroke="none" fill="#047404" fill-rule="evenodd"></path><path id="path4" d="M58.583 35.843 C 58.033 35.993,57.157 36.270,56.636 36.458 C 56.115 36.646,55.635 36.751,55.568 36.692 C 55.501 36.632,55.501 36.677,55.566 36.792 C 55.645 36.928,55.573 37.000,55.357 37.000 C 55.176 37.000,55.003 37.068,54.972 37.152 C 54.942 37.235,54.692 37.338,54.417 37.381 C 54.142 37.423,53.633 37.618,53.287 37.812 C 52.940 38.007,52.504 38.167,52.318 38.167 C 52.132 38.167,52.027 38.242,52.083 38.333 C 52.140 38.425,52.069 38.500,51.927 38.500 C 51.629 38.500,51.549 39.574,51.833 39.750 C 51.925 39.807,52.000 40.107,52.000 40.417 C 52.000 40.727,52.075 41.027,52.167 41.083 C 52.258 41.140,52.333 41.407,52.333 41.677 C 52.333 41.946,52.402 42.167,52.485 42.167 C 52.569 42.167,52.603 42.385,52.561 42.652 C 52.519 42.919,52.563 43.186,52.659 43.245 C 52.755 43.305,52.833 43.653,52.833 44.020 C 52.833 44.422,52.899 44.645,53.000 44.583 C 53.147 44.493,53.262 45.485,53.179 46.125 C 53.164 46.240,53.230 46.333,53.326 46.333 C 53.422 46.333,53.500 46.483,53.500 46.667 C 53.500 46.903,53.611 47.000,53.883 47.000 C 54.323 47.000,55.163 46.645,55.165 46.458 C 55.166 46.390,55.286 46.333,55.433 46.333 C 55.579 46.333,55.935 46.210,56.224 46.060 C 57.189 45.557,57.327 45.500,57.581 45.500 C 57.720 45.500,57.833 45.425,57.833 45.333 C 57.833 45.242,57.983 45.167,58.167 45.167 C 58.350 45.167,58.500 45.100,58.500 45.019 C 58.500 44.938,58.836 44.821,59.246 44.759 C 59.656 44.698,60.036 44.577,60.089 44.490 C 60.143 44.404,60.369 44.333,60.593 44.333 C 60.817 44.333,61.000 44.258,61.000 44.167 C 61.000 44.075,61.150 44.000,61.332 44.000 C 61.661 44.000,61.692 43.785,61.454 43.167 C 61.400 43.029,61.308 42.410,61.249 41.792 C 61.189 41.173,61.071 40.667,60.987 40.667 C 60.902 40.667,60.833 40.367,60.833 40.000 C 60.833 39.633,60.758 39.333,60.667 39.333 C 60.575 39.333,60.500 39.071,60.500 38.750 C 60.500 38.429,60.425 38.167,60.333 38.167 C 60.242 38.167,60.162 37.960,60.156 37.708 C 60.150 37.456,60.018 36.872,59.864 36.411 L 59.583 35.571 58.583 35.843 " stroke="none" fill="#94dc04" fill-rule="evenodd"></path></g></svg>